<?xml version="1.0" standalone="no"?>
<!DOCTYPE svg PUBLIC "-//W3C//DTD SVG 1.1//EN" "http://www.w3.org/Graphics/SVG/1.1/DTD/svg11.dtd" >
<!--
2013-9-30: Created.
-->
<svg>
<metadata>
Created by iconfont
</metadata>
<defs>

<font id="iconfont" horiz-adv-x="1024" >
  <font-face
    font-family="iconfont"
    font-weight="500"
    font-stretch="normal"
    units-per-em="1024"
    ascent="896"
    descent="-128"
  />
    <missing-glyph />
    
    <glyph glyph-name="x" unicode="x" horiz-adv-x="1001"
d="M281 543q-27 -1 -53 -1h-83q-18 0 -36.5 -6t-32.5 -18.5t-23 -32t-9 -45.5v-76h912v41q0 16 -0.5 30t-0.5 18q0 13 -5 29t-17 29.5t-31.5 22.5t-49.5 9h-133v-97h-438v97zM955 310v-52q0 -23 0.5 -52t0.5 -58t-10.5 -47.5t-26 -30t-33 -16t-31.5 -4.5q-14 -1 -29.5 -0.5
t-29.5 0.5h-32l-45 128h-439l-44 -128h-29h-34q-20 0 -45 1q-25 0 -41 9.5t-25.5 23t-13.5 29.5t-4 30v167h911zM163 247q-12 0 -21 -8.5t-9 -21.5t9 -21.5t21 -8.5q13 0 22 8.5t9 21.5t-9 21.5t-22 8.5zM316 123q-8 -26 -14 -48q-5 -19 -10.5 -37t-7.5 -25t-3 -15t1 -14.5
t9.5 -10.5t21.5 -4h37h67h81h80h64h36q23 0 34 12t2 38q-5 13 -9.5 30.5t-9.5 34.5q-5 19 -11 39h-368zM336 498v228q0 11 2.5 23t10 21.5t20.5 15.5t34 6h188q31 0 51.5 -14.5t20.5 -52.5v-227h-327z" />
    

    
    <glyph glyph-name="number_" unicode="&#59259;" d="M534.8864 896L373.9648 453.888A211.7632 211.7632 0 0 0 486.4 486.4C613.632 486.4 716.8 371.7632 716.8 230.4s-103.168-256-230.4-256S256 89.0368 256 230.4c0 38.5024 7.68 75.0592 21.3504 107.8272L480.4096 896h54.4768zM486.4 25.6C585.3696 25.6 665.6 117.248 665.6 230.4S585.3696 435.2 486.4 435.2 307.2 343.552 307.2 230.4s80.2304-204.8 179.2-204.8z"  horiz-adv-x="1024" />

    
    <glyph glyph-name="number_1" unicode="&#59260;" d="M716.4416 844.8L401.408-20.7872l-48.128 17.5104L661.9648 844.8H256V896h460.8v-51.2h-0.3584z"  horiz-adv-x="1024" />

    
    <glyph glyph-name="number_2" unicode="&#59261;" d="M437.9136-25.6l160.9216 442.112A211.7632 211.7632 0 0 0 486.4 384C359.168 384 256 498.6368 256 640s103.168 256 230.4 256S716.8 781.3632 716.8 640a279.04 279.04 0 0 0-21.3504-107.8272L492.3904-25.6H437.9136zM486.4 844.8C387.4304 844.8 307.2 753.152 307.2 640s80.2304-204.8 179.2-204.8S665.6 526.848 665.6 640 585.3696 844.8 486.4 844.8z"  horiz-adv-x="1024" />

    
    <glyph glyph-name="number_3" unicode="&#59262;" d="M486.4 896A230.4 230.4 0 0 0 716.8 665.6v-460.8a230.4 230.4 0 1 0-460.8 0v460.8A230.4 230.4 0 0 0 486.4 896z m0-51.2A179.2 179.2 0 0 1 307.2 665.6v-460.8a179.2 179.2 0 0 1 358.4 0v460.8A179.2 179.2 0 0 1 486.4 844.8z"  horiz-adv-x="1024" />

    
    <glyph glyph-name="number_4" unicode="&#59263;" d="M486.708243 428.418648A177.042297 177.042297 0 0 0 663.75054 251.376351v-50.583514a177.042297 177.042297 0 0 0-354.084594 0V226.084594H259.082433v12.645878-37.937635a227.62581 227.62581 0 1 1 455.251621 0v50.583514a227.62581 227.62581 0 0 1-124.840111 203.14339A214.979932 214.979932 0 0 1 701.688175 643.39858v25.291757A214.979932 214.979932 0 1 1 272.082396 681.336215H322.81766a164.396419 164.396419 0 0 0 328.287002-12.645878l0.050583-25.291757A164.396419 164.396419 0 0 0 486.708243 479.002161H461.416487v-50.583513h25.291756z"  horiz-adv-x="1024" />

    
    <glyph glyph-name="number_5" unicode="&#59264;" d="M563.2 870.4V-25.6H512V844.8H409.6V896h153.6v-25.6z"  horiz-adv-x="1024" />

    
    <glyph glyph-name="number_6" unicode="&#59265;" d="M256.6144 179.2L256 179.456 614.4 895.488V896h51.2v-716.8h102.4v-51.2H665.6v-153.6H614.4v153.6H256v51.2h0.6144z m56.4736 0H614.4V781.1072L313.088 179.2z"  horiz-adv-x="1024" />

    
    <glyph glyph-name="number_7" unicode="&#59266;" d="M590.4384 461.6192A230.4 230.4 0 0 0 716.8 256v-51.2a230.4 230.4 0 1 0-460.8 0v51.2a230.4 230.4 0 0 0 126.3616 205.6192A217.6 217.6 0 0 0 268.8 652.8v25.6a217.6 217.6 0 1 0 435.2 0v-25.6a217.6 217.6 0 0 0-113.5616-191.1808zM486.4 844.8a166.4 166.4 0 0 1-166.4-166.4v-25.6a166.4 166.4 0 1 1 332.8 0v25.6A166.4 166.4 0 0 1 486.4 844.8z m0-409.6A179.2 179.2 0 0 1 307.2 256v-51.2a179.2 179.2 0 0 1 358.4 0v51.2A179.2 179.2 0 0 1 486.4 435.2z"  horiz-adv-x="1024" />

    
    <glyph glyph-name="number_punctuation" unicode="&#59267;" d="M460.8 25.6h51.2v-102.4H460.8v102.4z m0-102.4h51.2l-51.2-51.2H409.6l51.2 51.2z"  horiz-adv-x="1024" />

    
    <glyph glyph-name="number_8" unicode="&#59278;" d="M307.2 896h384v-51.2H307.2V896z m51.2-51.2v-460.8H307.2V844.8h51.2zM358.4 384H307.2v-153.6h51.2v-51.2a153.6 153.6 0 0 1 159.3344-153.4976L522.24 25.6c37.2224 0 98.816 9.8816 132.4544 96.6656 1.024 2.56 1.9456 5.0176 2.816 7.5776 12.8 36.5056 20.8896 85.6576 20.8896 151.7568 0 235.8272-102.4 256-156.16 256-1.536 0-3.0208 0-4.5056-0.1024A153.6 153.6 0 0 1 358.4 384z m220.4672 193.6384c39.7312-11.8784 80.384-36.6592 109.3632-89.2928 9.984-16.7424 17.5616-35.0208 22.4256-54.4256 11.8784-39.6288 18.944-89.5488 18.944-152.32 0-62.0544-6.912-111.5136-18.5856-150.8864a203.6224 203.6224 0 0 0-25.0368-59.5968c-28.0576-48.4864-66.1504-72.3968-103.7824-84.3776A204.8 204.8 0 0 0 307.2 179.2v204.8a204.8 204.8 0 0 0 271.6672 193.6384z"  horiz-adv-x="1024" />

    
    <glyph glyph-name="number_9" unicode="&#59279;" d="M319.280533 25.561379l341.776444 463.601804-41.205637 30.353966-364.042843-493.802208 0.511871-0.35831V-25.625747h460.684138v51.187126H319.280533zM257.70242 639.806897a230.342069 230.342069 0 0 0 448.092105 96.743669l-46.477911-23.187769A179.257317 179.257317 0 0 1 309.299044 639.806897H257.70242zM705.18028 738.751612A281.529195 281.529195 0 0 0 717.004506 657.722391a280.300704 280.300704 0 0 0-57.841453-170.965002l-41.15445 30.45634a230.802753 230.802753 0 0 1 40.642579 197.684682l46.529098 23.853201z"  horiz-adv-x="1024" />

    
    <glyph glyph-name="add" unicode="&#59697;" d="M469.333333 426.666667H170.666667v-85.333334h298.666666v-298.666666h85.333334v298.666666h298.666666v85.333334h-298.666666V725.333333h-85.333334v-298.666666z"  horiz-adv-x="1024" />

    
    <glyph glyph-name="column" unicode="&#59698;" d="M853.333333 640v-554.666667H128V640h725.333333zM213.333333 554.666667v-384h554.666667V554.666667H213.333333z m128 0h85.333334v-384H341.333333V554.666667z m213.333334 0h85.333333v-384h-85.333333V554.666667z"  horiz-adv-x="1024" />

    
    <glyph glyph-name="column1" unicode="&#59699;" d="M896 640v-554.666667H128V640h768zM213.333333 554.666667v-384h597.333334V554.666667H213.333333z m85.333334 0h85.333333v-384H298.666667V554.666667z m170.666666 0h85.333334v-384h-85.333334V554.666667z m170.666667 0h85.333333v-384h-85.333333V554.666667z"  horiz-adv-x="1024" />

    
    <glyph glyph-name="air-drop" unicode="&#59700;" d="M275.285333 454.101333l209.621334-56.192-108.501334 187.946667 73.898667 42.666667 151.168-261.845334 209.578667-56.149333-22.058667-82.432-242.901333 65.109333-0.554667-0.341333-0.298667 0.554667-374.442666 100.309333 11.434666 42.666667 21.674667 80.981333 82.432-22.058667-11.050667-41.216zM810.666667 85.333333H170.666667v85.333334h640v-85.333334z"  horiz-adv-x="1024" />

    
    <glyph glyph-name="add-r" unicode="&#59701;" d="M448 405.333333V512h85.333333v-106.666667H640v-85.333333h-106.666667V213.333333h-85.333333v106.666667H341.333333v85.333333h106.666667z m42.666667-405.333333a362.666667 362.666667 0 1 0 0 725.333333 362.666667 362.666667 0 0 0 0-725.333333z m0 85.333333a277.333333 277.333333 0 1 1 0 554.666667 277.333333 277.333333 0 0 1 0-554.666667z"  horiz-adv-x="1024" />

    
    <glyph glyph-name="add-s" unicode="&#59702;" d="M533.333333 320V213.333333h-85.333333v106.666667H341.333333v85.333333h106.666667V512h85.333333v-106.666667H640v-85.333333h-106.666667zM170.666667 682.666667h640v-640H170.666667V682.666667z m85.333333-85.333334v-469.333333h469.333333V597.333333H256z"  horiz-adv-x="1024" />

    
    <glyph glyph-name="arrow-double-left" unicode="&#59703;" d="M427.264 362.666667L426.666667 363.306667 746.026667 682.666667 806.4 622.336 546.730667 362.666667l259.626666-259.626667L746.026667 42.666667 426.666667 362.069333l0.597333 0.597334z m-298.666667 0L128 363.306667 447.36 682.666667 507.733333 622.336 248.064 362.666667l259.626667-259.626667L447.36 42.666667 128 362.069333l0.597333 0.597334z"  horiz-adv-x="1024" />

    
    <glyph glyph-name="app" unicode="&#59704;" d="M170.666667 341.333333h298.666666v-298.666666H170.666667v298.666666z m85.333333-85.333333v-128h128v128H256zM170.666667 682.666667h298.666666v-298.666667H170.666667V682.666667z m85.333333-85.333334v-128h128V597.333333H256z m256 85.333334h298.666667v-298.666667h-298.666667V682.666667z m85.333333-85.333334v-128h128V597.333333h-128z m-85.333333-256h298.666667v-298.666666h-298.666667v298.666666z m85.333333-85.333333v-128h128v128h-128z"  horiz-adv-x="1024" />

    
    <glyph glyph-name="also-loan" unicode="&#59705;" d="M802.730667 362.666667l91.136-91.136-60.330667-60.330667L682.666667 362.069333l0.597333 0.597334-0.597333 0.64 150.869333 150.826666 60.330667-60.330666-91.136-91.136zM554.666667 298.666667h85.333333v-85.333334h-85.333333v-42.666666h-85.333334v42.666666H384v85.333334h85.333333v42.666666H384v85.333334h67.669333L384 494.336 444.330667 554.666667l67.498666-67.498667L579.328 554.666667l60.373333-60.330667L572.032 426.666667H640v-85.333334h-85.333333v-42.666666z m256 256h-85.333334V597.333333H256v-469.333333h469.333333v42.666667h85.333334v-128H170.666667V682.666667h640v-128z"  horiz-adv-x="1024" />

    
    <glyph glyph-name="ascending" unicode="&#59706;" d="M511.658667 639.786667l179.2-179.2-51.285334-51.413334-127.914666 127.573334V-42.666667h-85.333334V725.333333l85.333334-85.333333v-0.213333z"  horiz-adv-x="1024" />

    
    <glyph glyph-name="air" unicode="&#59707;" d="M265.770667 375.296l209.578666 56.149333-187.904 108.501334 42.666667 73.898666 261.802667-151.168 209.621333 56.149334 22.058667-82.432-242.858667-65.066667-0.341333-0.554667-0.512 0.341334-374.485334-100.352-11.434666 42.666666-21.674667 80.981334 82.432 22.101333 11.050667-41.216zM810.666667 85.333333H170.666667v85.333334h640v-85.333334z"  horiz-adv-x="1024" />

    
    <glyph glyph-name="arrow-double-right" unicode="&#59708;" d="M507.093333 362.666667l0.597334 0.64L188.330667 682.666667 128 622.336 387.669333 362.666667 128 103.04 188.330667 42.666667l319.36 319.36-0.597334 0.597333z m298.666667 0l0.597333 0.64L486.997333 682.666667 426.666667 622.336l259.669333-259.669333L426.666667 103.04 486.997333 42.666667l319.36 319.36-0.597333 0.597333z"  horiz-adv-x="1024" />

    
    <glyph glyph-name="atm" unicode="&#59709;" d="M456.064 723.712A362.666667 362.666667 0 1 0 286.293333 662.314667L231.168 727.68A169.984 169.984 0 0 0 341.333333 768c44.16 0 84.394667-16.768 114.730667-44.288zM490.666667 85.333333a277.333333 277.333333 0 1 1 0 554.666667 277.333333 277.333333 0 0 1 0-554.666667zM426.666667 426.666667v-85.333334H341.333333v85.333334h85.333334z m213.333333 0v-85.333334h-85.333333v85.333334h85.333333z"  horiz-adv-x="1024" />

    
    <glyph glyph-name="atm-away" unicode="&#59710;" d="M725.333333 158.165333V213.333333h-42.666666v-72.533333h0.298666l-0.298666-0.298667 60.330666-60.330666 30.165334 30.165333L725.333333 158.165333z m-152.704-148.864a362.666667 362.666667 0 0 0-278.613333 658.176l-61.397333 61.44A169.984 169.984 0 0 0 341.333333 768c44.16 0 84.394667-16.768 114.730667-44.288a362.666667 362.666667 0 0 0 387.968-443.008 192.128 192.128 0 0 1-77.824 50.346667 277.333333 277.333333 0 1 1-243.925333-243.925334c10.282667-29.994667 27.733333-56.618667 50.346666-77.824zM426.666667 426.666667v-85.333334H341.333333v85.333334h85.333334z m213.333333 0v-85.333334h-85.333333v85.333334h85.333333z m64-426.666667a149.333333 149.333333 0 1 0 0 298.666667 149.333333 149.333333 0 0 0 0-298.666667z"  horiz-adv-x="1024" />

    
    <glyph glyph-name="bad-r" unicode="&#59711;" d="M541.354667 256l-40.021334-85.333333H426.666667V512h256v-256h-141.354667zM490.666667 0a362.666667 362.666667 0 1 0 0 725.333333 362.666667 362.666667 0 0 0 0-725.333333z m0 85.333333a277.333333 277.333333 0 1 1 0 554.666667 277.333333 277.333333 0 0 1 0-554.666667zM298.666667 256V512h85.333333v-256H298.666667z"  horiz-adv-x="1024" />

    
    <glyph glyph-name="attendance" unicode="&#59712;" d="M527.488 300.842667h0.042667l-60.330667-60.373334L341.333333 366.336 401.664 426.666667l65.493333-65.493334L583.850667 477.866667l60.330666-60.330667-116.693333-116.693333zM341.333333 725.333333v-85.333333H256V725.333333h85.333333z m384 0v-85.333333h-85.333333V725.333333h85.333333z m128-85.333333v-554.666667H128V640h725.333333zM213.333333 554.666667v-384h554.666667V554.666667H213.333333z"  horiz-adv-x="1024" />

    
    <glyph glyph-name="bad" unicode="&#59713;" d="M554.666667 213.333333l-42.666667-170.666666h-85.333333V554.666667h341.333333v-341.333334h-213.333333z m-213.333334 170.666667v-426.666667h256l37.333334 170.666667H853.333333V640H341.333333v-256z m-128-256h85.333334V640H213.333333v-512z"  horiz-adv-x="1024" />

    
    <glyph glyph-name="back-r" unicode="&#59714;" d="M366.506667 361.6l-1.706667 1.706667 150.869333 150.826666 60.330667-60.330666-92.16-92.202667 92.16-92.16-60.330667-60.373333-150.869333 150.869333 1.706667 1.664zM853.333333 362.666667a362.666667 362.666667 0 1 0-725.333333 0 362.666667 362.666667 0 0 0 725.333333 0z m-85.333333 0a277.333333 277.333333 0 1 1-554.666667 0 277.333333 277.333333 0 0 1 554.666667 0z"  horiz-adv-x="1024" />

    
    <glyph glyph-name="back" unicode="&#59715;" d="M376.064 384l302.293333 302.336L618.026667 746.666667 256 384.64l0.597333-0.64-0.597333-0.597333 362.026667-362.069334 60.330666 60.373334L376.064 384z"  horiz-adv-x="1024" />

    
    <glyph glyph-name="bank-card" unicode="&#59716;" d="M853.333333 640v-554.666667H128V640h725.333333zM213.333333 554.666667v-384h554.666667V554.666667H213.333333z m0-256h554.666667v-85.333334H213.333333v85.333334z m42.666667 213.333333h128v-85.333333H256V512z"  horiz-adv-x="1024" />

    
    <glyph glyph-name="bar-chart" unicode="&#59717;" d="M256 128h554.666667v-85.333333H170.666667V682.666667h85.333333v-554.666667zM298.666667 597.333333h85.333333v-426.666666H298.666667V597.333333z m128-85.333333h85.333333v-341.333333h-85.333333V512z m128-85.333333h85.333333v-256h-85.333333v256z m128-85.333334h85.333333v-170.666666h-85.333333v170.666666z"  horiz-adv-x="1024" />

    
    <glyph glyph-name="box" unicode="&#59718;" d="M490.666667 746.666667L853.333333 537.6v-332.8l-362.666666-209.066667L128 204.8V537.6l362.666667 209.066667zM213.333333 493.781333v-244.053333l277.333334-158.976 277.333333 158.976v244.053333L490.666667 652.8 213.333333 493.781333zM448 311.637333V21.333333h85.333333v289.194667l289.877334 167.381333-42.666667 73.898667-288.938667-166.826667-288.938666 166.826667-42.666667-73.898667 288-166.272z"  horiz-adv-x="1024" />

    
    <glyph glyph-name="building" unicode="&#59719;" d="M640 426.666667h170.666667v-384H170.666667V682.666667h469.333333v-256zM256 512h42.666667V597.333333H256v-85.333333z m128 0h42.666667V597.333333H384v-85.333333z m-128-128h42.666667v85.333333H256v-85.333333z m128 0h42.666667v85.333333H384v-85.333333z m-128-128h42.666667v85.333333H256v-85.333333z m128 0h42.666667v85.333333H384v-85.333333z m-128-128h42.666667v85.333333H256v-85.333333z m128 0h42.666667v85.333333H384v-85.333333z m128 384h42.666667V597.333333h-42.666667v-85.333333z m0-128h42.666667v85.333333h-42.666667v-85.333333z m0-128h42.666667v85.333333h-42.666667v-85.333333z m0-128h42.666667v85.333333h-42.666667v-85.333333z m128 170.666667h85.333333v42.666666h-85.333333v-42.666666z m0-85.333334h85.333333v42.666667h-85.333333v-42.666667z m0-85.333333h85.333333v42.666667h-85.333333v-42.666667z"  horiz-adv-x="1024" />

    
    <glyph glyph-name="business" unicode="&#59720;" d="M640 640h213.333333v-554.666667H128V640h213.333333V682.666667h298.666667v-42.666667zM213.333333 554.666667v-384h554.666667V554.666667H213.333333z m341.333334-128v-42.666667h-128v42.666667h128z m213.333333 85.333333v-85.333333H213.333333V512h554.666667z"  horiz-adv-x="1024" />

    
    <glyph glyph-name="bill" unicode="&#59721;" d="M405.333333 725.333333c19.456 25.898667 50.432 42.666667 85.333334 42.666667 34.901333 0 65.877333-16.768 85.333333-42.666667H768v-725.333333H213.333333V725.333333h192zM384 640H298.666667v-554.666667h384V640h-85.333334v-42.666667H384V640z m0-170.666667h213.333333v-85.333333H384v85.333333z m0-128h213.333333v-85.333333H384v85.333333z"  horiz-adv-x="1024" />

    
    <glyph glyph-name="calculator" unicode="&#59722;" d="M320 512H640v-85.333333H298.666667V512h21.333333zM170.666667 682.666667h597.333333v-682.666667H170.666667V682.666667z m85.333333-85.333334v-512h426.666667V597.333333H256z m42.666667-213.333333h85.333333v-85.333333H298.666667v85.333333z m128 0h85.333333v-85.333333h-85.333333v85.333333z m128 0h85.333333v-128h-85.333333v128z m-256-128h85.333333v-85.333333H298.666667v85.333333z m128 0h85.333333v-85.333333h-85.333333v85.333333z m128 0h85.333333v-85.333333h-85.333333v85.333333z m85.333333 170.666667H298.666667h341.333333zM170.666667 682.666667h597.333333v-85.333334H170.666667V682.666667z"  horiz-adv-x="1024" />

    
    <glyph glyph-name="calendar" unicode="&#59723;" d="M341.333333 725.333333v-85.333333H256V725.333333h85.333333z m384 0v-85.333333h-85.333333V725.333333h85.333333z m128-85.333333v-554.666667H128V640h725.333333z m-85.333333-85.333333H213.333333v-384h554.666667V554.666667z m-384-85.333334v-85.333333H256v85.333333h128z m170.666667 0v-85.333333h-128v85.333333h128z m170.666666 0v-85.333333h-128v85.333333h128z m-341.333333-128v-85.333333H256v85.333333h128z m170.666667 0v-85.333333h-128v85.333333h128z m170.666666 0v-85.333333h-128v85.333333h128z"  horiz-adv-x="1024" />

    
    <glyph glyph-name="camera" unicode="&#59724;" d="M384 554.666667H213.333333v-384h554.666667V554.666667h-170.666667V597.333333H384v-42.666666z m469.333333 85.333333v-554.666667H128V640h725.333333zM341.333333 682.666667h298.666667v-42.666667H341.333333V682.666667z m149.333334-469.333334a149.333333 149.333333 0 1 0 0 298.666667 149.333333 149.333333 0 0 0 0-298.666667z m0 85.333334a64 64 0 1 1 0 128 64 64 0 0 1 0-128z"  horiz-adv-x="1024" />

    
    <glyph glyph-name="businesscard" unicode="&#59725;" d="M426.666667 213.333333a42.666667 42.666667 0 1 1-85.333334 0H256a128 128 0 0 0 256 0h-85.333333zM853.333333 640v-554.666667H128V640h725.333333zM213.333333 554.666667v-384h554.666667V554.666667H213.333333z m512-85.333334v-85.333333h-170.666666v85.333333h170.666666z m-42.666666-128v-85.333333h-128v85.333333h128z m-298.666667 0a85.333333 85.333333 0 1 0 0 170.666667 85.333333 85.333333 0 0 0 0-170.666667z"  horiz-adv-x="1024" />

    
    <glyph glyph-name="car" unicode="&#59726;" d="M768 469.333333v-42.666666H213.333333V682.666667h85.333334v-170.666667h384V682.666667h85.333333v-213.333334z m0-256v-85.333333H213.333333v85.333333h554.666667zM682.666667 682.666667v-85.333334H298.666667V682.666667h384zM213.333333 512v-384H128V512h85.333333z m640 0v-384h-85.333333V512h85.333333zM362.666667 256a64 64 0 1 0 0 128 64 64 0 0 0 0-128z m256 0a64 64 0 1 0 0 128 64 64 0 0 0 0-128z m192-128v-85.333333h-85.333334v85.333333h85.333334zM256 128v-85.333333H170.666667v85.333333h85.333333z"  horiz-adv-x="1024" />

    
    <glyph glyph-name="chat" unicode="&#59727;" d="M319.829333 42.666667H170.666667v149.162666A362.666667 362.666667 0 1 0 319.829333 42.666667z m170.837334 42.666666a277.333333 277.333333 0 1 1 0 554.666667 277.333333 277.333333 0 0 1 0-554.666667z"  horiz-adv-x="1024" />

    
    <glyph glyph-name="cangneishicao" unicode="&#59728;" d="M554.666667 0a128 128 0 0 0 256 0h-256z m298.666666 170.666667v128h-85.333333v42.666666l-277.333333 277.333334L213.333333 341.333333v-213.333333h298.666667v-85.333333H128v275.370666H85.333333L490.666667 725.333333l405.333333-407.296h-42.666667V170.666667z m-170.666666-42.666667a85.333333 85.333333 0 1 0 0 170.666667 85.333333 85.333333 0 0 0 0-170.666667z"  horiz-adv-x="1024" />

    
    <glyph glyph-name="check" unicode="&#59729;" d="M170.666667 682.666667h640v-640H170.666667V682.666667z m85.333333-85.333334v-469.333333h469.333333V597.333333H256z m170.666667-213.333333v49.322667h-32.682667v-36.693334l45.994667-38.314666-4.309334-8.32 48.341334 11.690666 31.658666-116.394666-55.04-15.018667-28.288 113.066667-18.346666-37.12-20.010667 15.445333V170.666667H332.373333v161.024L285.866667 244.992l-0.213334 93.354667 45.013334 94.976h-38.314667V491.648h39.978667v71.68h61.653333v-71.68h33.365333L426.666667 460.8l106.666666 105.856 42.666667-0.042667 106.837333-105.813333L682.666667 384l-43.008 42.666667v-50.005334h-169.642667V426.666667L426.666667 384z m252.330666-213.333333H418.986667v56.277333h163.328l33.365333 138.069333 58.325333-13.354666-31.658666-124.714667h36.693333V170.666667z m-109.994666 196.010666l20.010666-111.402666-55.04-8.32-19.968 111.36 54.997334 8.362666z m60.330666 70.656L554.666667 508.458667l-74.666667-71.125334h149.333333z"  horiz-adv-x="1024" />

    
    <glyph glyph-name="checkbox-selected" unicode="&#59730;" d="M464.213333 346.112l149.504 149.504 60.330667-60.330667-208.384-208.384-1.450667 1.450667-1.450666-1.450667-125.866667 125.866667 60.373333 60.330667 66.986667-66.986667zM170.666667 682.666667h640v-640H170.666667V682.666667z m85.333333-85.333334v-469.333333h469.333333V597.333333H256z"  horiz-adv-x="1024" />

    
    <glyph glyph-name="Chinese" unicode="&#59731;" d="M533.333333 469.333333H682.666667v-213.333333h-149.333334v-85.333333h-85.333333v85.333333H298.666667v213.333333h149.333333V554.666667h85.333333v-85.333334z m0-85.333333v-42.666667H597.333333v42.666667h-64z m-85.333333 0H384v-42.666667h64v42.666667zM810.666667 682.666667v-640H170.666667V682.666667h640zM256 597.333333v-469.333333h469.333333V597.333333H256z"  horiz-adv-x="1024" />

    
    <glyph glyph-name="checkbox" unicode="&#59733;" d="M170.666667 682.666667h640v-640H170.666667V682.666667z m85.333333-85.333334v-469.333333h469.333333V597.333333H256z"  horiz-adv-x="1024" />

    
    <glyph glyph-name="clock" unicode="&#59734;" d="M384 709.376V768h213.333333v-58.624a362.666667 362.666667 0 1 0-213.333333 0zM490.666667 85.333333a277.333333 277.333333 0 1 1 0 554.666667 277.333333 277.333333 0 0 1 0-554.666667z m134.4 490.666667l60.330666-60.330667-177.066666-177.066666L448 398.933333l177.066667 177.066667z"  horiz-adv-x="1024" />

    
    <glyph glyph-name="close" unicode="&#59735;" d="M562.858667 365.866667l271.530666 271.530666-60.330666 60.373334-271.530667-271.530667-271.530667 271.530667L170.666667 637.397333l271.530666-271.530666L170.666667 94.336l60.330666-60.330667 271.530667 271.530667 271.530667-271.530667 60.330666 60.330667-271.530666 271.530667z"  horiz-adv-x="1024" />

    
    <glyph glyph-name="commodity" unicode="&#59736;" d="M768 469.333333h-128v-53.333333V426.666667h-85.333333v42.666666h-128v-42.666666H341.333333v-10.666667V469.333333H213.333333v-341.333333h554.666667v341.333333z m42.666667 85.333334h42.666666v-512H128V554.666667h213.333333v21.333333a149.333333 149.333333 0 1 0 298.666667 0V554.666667h170.666667z m-384 0h128v21.333333a64 64 0 0 1-128 0V554.666667z"  horiz-adv-x="1024" />

    
    <glyph glyph-name="colthes" unicode="&#59737;" d="M256 469.333333H213.333333V597.333333h129.493334A150.613333 150.613333 0 0 0 341.333333 618.666667V682.666667H170.666667v-640h640V682.666667h-170.666667v-64c0-7.253333-0.512-14.378667-1.493333-21.333334H768v-128h-42.666667v-341.333333H256v341.333333zM128 682.666667h42.666667v-298.666667H128V682.666667z m682.666667 0h42.666666v-298.666667h-42.666666V682.666667zM426.666667 682.666667H341.333333v-64a149.333333 149.333333 0 0 1 298.666667 0V682.666667h-85.333333v-64a64 64 0 0 0-128 0V682.666667z"  horiz-adv-x="1024" />

    
    <glyph glyph-name="compare" unicode="&#59738;" d="M853.333333 640v-554.666667H128V640h725.333333zM213.333333 554.666667v-384h554.666667V554.666667H213.333333z m277.12-42.666667h-66.56l-33.28-209.493333L357.76 512h-66.56l67.84-298.666667h63.146667l68.266666 298.666667z m186.88-214.186667c0 47.914667-11.093333 66.986667-49.493333 82.346667l-37.973333 15.36c-17.493333 7.253333-20.906667 17.92-20.906667 29.866667 0 10.24 1.28 18.773333 5.12 23.893333 3.413333 4.693333 8.96 8.106667 17.493333 8.106667 8.96 0 14.08-2.986667 17.493334-7.68 5.12-6.826667 5.12-13.653333 5.12-24.32h60.586666c0 30.72-6.826667 52.053333-23.466666 67.413333-13.226667 12.373333-32.853333 19.2-59.733334 19.2-23.04 0-41.386667-6.826667-55.893333-19.2-18.346667-15.786667-27.306667-39.253333-27.306667-67.413333 0-47.36 12.8-63.573333 43.52-76.373334l38.4-15.786666c21.76-8.96 26.453333-15.018667 26.453334-35.413334 0-12.373333-1.706667-20.48-5.973334-25.6-3.84-5.12-9.813333-7.68-19.2-7.68s-15.36 3.413333-18.773333 7.253334c-5.546667 6.4-6.4 13.653333-6.4 26.026666h-60.586667c0-31.146667 5.12-50.773333 20.053334-65.706666 13.653333-13.653333 35.84-22.186667 65.706666-22.186667 29.44 0 52.48 9.386667 66.133334 22.613333 15.786667 15.36 19.626667 34.56 19.626666 65.28z"  horiz-adv-x="1024" />

    
    <glyph glyph-name="compass" unicode="&#59739;" d="M536.832 315.008l0.64-0.597333-1.365333-0.725334-0.170667-0.384-0.170667 0.170667L341.333333 208.810667l104.661334 194.389333-0.64 0.597333 1.365333 0.725334 0.213333 0.384 0.128-0.170667 194.432 104.661333-104.704-194.389333zM490.666667 0a362.666667 362.666667 0 1 0 0 725.333333 362.666667 362.666667 0 0 0 0-725.333333z m0 85.333333a277.333333 277.333333 0 1 1 0 554.666667 277.333333 277.333333 0 0 1 0-554.666667z"  horiz-adv-x="1024" />

    
    <glyph glyph-name="complain" unicode="&#59740;" d="M170.666667 682.666667h640v-640H170.666667V682.666667z m85.333333-85.333334v-469.333333h469.333333V597.333333H256z m153.002667-265.685333l21.504-58.325333 0.170666 265.002666 229.973334 23.338667 26.666666-61.653333-189.994666-20.010667v-41.685333h193.322666v-63.317334h-64.981333v-59.989333l65.109333-20.010667V230.4l-65.109333 17.92v-75.008h-66.645333V268.373333l-40.021334 13.269334v63.402666l40.021334-11.690666v41.685333h-61.696L497.493333 170.666667l-66.986666 20.992v81.664L383.957333 170.666667H320.853333l-0.170666 200.96h-31.701334v63.36H384v-126.634667l25.002667 23.296zM360.661333 566.656l49.408-78.506667-54.4-34.816-50.005333 81.664 55.04 31.658667z"  horiz-adv-x="1024" />

    
    <glyph glyph-name="complete-r" unicode="&#59741;" d="M456.704 346.538667L600.832 490.666667l60.330667-60.330667-204.032-204.032-1.194667 1.194667-0.426667-0.426667-143.488 143.530667L372.352 430.933333l84.352-84.394666zM490.666667 0a362.666667 362.666667 0 1 0 0 725.333333 362.666667 362.666667 0 0 0 0-725.333333z m0 85.333333a277.333333 277.333333 0 1 1 0 554.666667 277.333333 277.333333 0 0 1 0-554.666667z"  horiz-adv-x="1024" />

    
    <glyph glyph-name="complete" unicode="&#59742;" d="M379.050667 62.890667l1.28-1.28L898.389333 579.669333 838.058667 640 378.709333 180.650667 143.402667 416l-60.373334-60.330667 294.4-294.4 1.621334 1.621334z"  horiz-adv-x="1024" />

    
    <glyph glyph-name="courier" unicode="&#59743;" d="M681.514667 469.333333a192 192 0 1 0-9.813334 85.333334H768v-85.333334h-86.485333z m-86.314667 0h-209.066667a106.666667 106.666667 0 0 1 209.066667 0zM682.666667 99.669333L611.669333 170.666667h-242.346666L298.666667 99.968V85.333333h384v14.336z m84.949333 35.584H768V0H213.333333v135.253333h0.085334L213.333333 135.338667 333.994667 256l0.085333-0.085333V256h313.173333v-0.256l120.448-120.405333-0.085333-0.085334z"  horiz-adv-x="1024" />

    
    <glyph glyph-name="copy" unicode="&#59744;" d="M640 554.666667h170.666667v-512H298.666667v170.666666H170.666667V682.666667h469.333333v-128z m0-85.333334v-256H384v-85.333333h341.333333v341.333333h-85.333333zM256 597.333333v-298.666666h298.666667V597.333333H256z"  horiz-adv-x="1024" />

    
    <glyph glyph-name="CSR" unicode="&#59745;" d="M704 42.666667H512v85.333333h170.666667v320a192 192 0 0 1-384 0V42.666667H213.333333v405.333333a277.333333 277.333333 0 1 0 554.666667 0V42.666667h-64zM170.666667 298.666667h42.666666v-256H170.666667v256z m597.333333 0h42.666667v-256h-42.666667v256z m-256-170.666667v42.666667h85.333333v-42.666667h-85.333333z"  horiz-adv-x="1024" />

    
    <glyph glyph-name="create-bill" unicode="&#59747;" d="M448 384V490.666667h85.333333V384H640v-85.333333h-106.666667v-106.666667h-85.333333V298.666667H341.333333v85.333333h106.666667z m-42.666667 341.333333c19.456 25.898667 50.432 42.666667 85.333334 42.666667 34.901333 0 65.877333-16.768 85.333333-42.666667H768v-725.333333H213.333333V725.333333h192zM384 640H298.666667v-554.666667h384V640h-85.333334v-42.666667H384V640z"  horiz-adv-x="1024" />

    
    <glyph glyph-name="cut" unicode="&#59748;" d="M363.861333 170.666667H640v276.138666L363.861333 170.666667zM298.666667 226.133333L584.533333 512H298.666667v-285.866667zM669.866667 597.333333l102.4 102.4 60.330666-60.330666L725.333333 532.138667V170.666667h85.333334v-85.333334h-85.333334v-85.333333h-85.333333v85.333333H213.333333V512H128V597.333333h85.333333V682.666667h85.333334v-85.333334h371.2z"  horiz-adv-x="1024" />

    
    <glyph glyph-name="dashboard" unicode="&#59749;" d="M764.757333 320H725.333333v85.333333h39.424A277.546667 277.546667 0 0 1 533.333333 636.757333V597.333333h-85.333333v39.424A277.546667 277.546667 0 0 1 216.576 405.333333H256v-85.333333h-39.424a277.546667 277.546667 0 0 1 231.424-231.424V128h85.333333v-39.424a277.546667 277.546667 0 0 1 231.424 231.424zM490.666667 0a362.666667 362.666667 0 1 0 0 725.333333 362.666667 362.666667 0 0 0 0-725.333333zM298.666667 524.501333L328.832 554.666667l30.165333-30.165334-30.165333-30.165333L298.666667 524.501333z m320-320l30.165333 30.165334 30.165333-30.165334-30.165333-30.165333-30.165333 30.165333zM648.832 554.666667l30.165333-30.165334-30.165333-30.165333-30.165333 30.165333 30.165333 30.165334z m-320-320l30.165333-30.165334-30.165333-30.165333L298.666667 204.501333l30.165333 30.165334z m298.24 270.506666l-105.642667-196.138666-90.496 90.496 196.096 105.6z"  horiz-adv-x="1024" />

    
    <glyph glyph-name="delete" unicode="&#59750;" d="M213.333333 597.333333h554.666667v-597.333333H213.333333V597.333333z m85.333334-85.333333v-426.666667h384V512H298.666667z m85.333333-85.333333h85.333333v-256H384v256z m128 0h85.333333v-256h-85.333333v256zM170.666667 597.333333h640v-85.333333H170.666667V597.333333z m213.333333 128h213.333333v-85.333333H384V725.333333z"  horiz-adv-x="1024" />

    
    <glyph glyph-name="delivery" unicode="&#59751;" d="M422.058667 81.493333l-211.2 211.2-90.453334 30.122667 150.826667 150.869333 45.226667-15.104 223.701333 223.701334h271.530667v-271.530667l-223.701334-223.701333 15.104-45.226667-150.826666-150.869333-30.208 90.496z m-165.930667 105.557334l60.373333-60.330667-90.538666-90.496-60.330667 60.330667 90.496 90.496z m45.269333 135.765333l150.869334-150.826667 287.061333 287.104-0.085333 150.741334-150.741334 0.085333-287.104-287.104z m272.938667 121.685333a64 64 0 1 0 90.496 90.496 64 64 0 0 0-90.496-90.496z"  horiz-adv-x="1024" />

    
    <glyph glyph-name="customs" unicode="&#59752;" d="M587.050667 356.053333a21.418667 21.418667 0 0 1 0.384 30.549334 21.418667 21.418667 0 0 1-30.165334 0 42.965333 42.965333 0 0 0-42.154666-12.245334l56.746666 56.832 54.613334-54.314666 3.242666 57.941333 18.048-18.048-3.2-57.856 15.104-14.976 3.2 57.728 16.469334-16.469333-3.2-57.6 16.682666-16.64 1.194667 91.733333-63.146667 61.44c7.04 4.48 12.928 8.96 16.682667 12.8a42.794667 42.794667 0 0 1 0.213333 60.501333 42.794667 42.794667 0 0 1-60.544-0.170666 103.125333 103.125333 0 0 1-12.714666-16.64L513.365333 584.106667l-92.074666-1.578667 20.266666-20.352 55.338667 5.504 15.104-15.104-55.424-5.546667 15.018667-15.061333 55.466666 5.546667 15.104-15.104-55.594666-5.546667 54.912-55.296-56.746667-56.746667a42.965333 42.965333 0 0 0 12.202667 42.154667 21.418667 21.418667 0 0 1 0 30.165333 21.418667 21.418667 0 0 1-31.146667-0.938666 85.888 85.888 0 0 1-25.130667-66.005334 86.186667 86.186667 0 0 1-27.221333-2.730666l-53.418667 53.461333-30.378666-30.378667 45.226666-45.226666a85.802667 85.802667 0 0 1-13.824-104.106667L299.52 219.477333l30.336-30.378666 61.610667 61.610666a85.802667 85.802667 0 0 1 104.149333 13.824l16.981333-16.981333a85.461333 85.461333 0 0 1 12.885334-103.978667 85.589333 85.589333 0 0 1 121.088 0.384c33.536 33.536 33.706667 87.722667 0.384 121.045334a85.461333 85.461333 0 0 1-103.978667 12.885333l-25.173333 25.173333a86.186667 86.186667 0 0 1 2.730666 27.264 85.888 85.888 0 0 1 66.56 25.685334z m-193.450667-42.410666a42.965333 42.965333 0 0 0 11.477333 41.429333l14.976-14.976-26.453333-26.453333z m30.378667-30.336l26.453333 26.453333 14.933333-15.018667a42.965333 42.965333 0 0 0-41.386666-11.434666zM235.093333 105.344a362.666667 362.666667 0 1 0 512.896 512.853333 362.666667 362.666667 0 0 0-512.853333-512.853333z m94.72 385.706667l-60.714666-60.757334 30.165333-30.165333 60.757333 60.757333-30.208 30.165334z"  horiz-adv-x="1024" />

    
    <glyph glyph-name="descending" unicode="&#59753;" d="M426.325333 42.666667L247.466667 221.568 299.093333 273.066667l127.232-127.573334V725.333333h85.333334v-768l-85.333334 85.333334z"  horiz-adv-x="1024" />

    
    <glyph glyph-name="dialog" unicode="&#59754;" d="M293.12 312.618667l79.616-45.909334-62.421333-36.053333 180.266666-104.106667 180.266667 104.106667-62.336 35.968 79.658667 45.994667 153.514666-88.618667L490.666667 21.333333l-351.018667 202.666667 153.514667 88.618667zM841.728 480L490.666667 277.333333 139.648 480 490.666667 682.666667l351.018666-202.666667z m-351.146667 110.72L310.357333 486.656l180.266667-104.106667 180.266667 104.106667-180.266667 104.106667z"  horiz-adv-x="1024" />

    
    <glyph glyph-name="diamond" unicode="&#59755;" d="M592.213333 469.333333H387.84l74.154667 128.426667h56.021333L592.213333 469.333333z m-192.213333-85.333333h180.010667l-90.026667-184.405333L400.042667 384z m290.730667 85.333333L616.533333 597.76h76.16L775.253333 469.333333H690.773333z m61.525333-85.333333l-161.962667-173.056L674.730667 384h77.525333z m-462.933333 85.333333H206.08l82.517333 128.426667h74.837334L289.28 469.333333z m-60.245334-85.333333h76.202667l83.029333-170.112L229.077333 384z m623.872 0H853.333333v0.426667l42.666667 45.226666L714.794667 682.666667H266.538667L85.333333 429.653333l42.666667-45.226666V384h0.426667l362.24-384 362.24 384z"  horiz-adv-x="1024" />

    
    <glyph glyph-name="download" unicode="&#59756;" d="M858.624 581.290667L874.666667 597.333333h-768l85.333333-85.333333h0.341333l298.24-298.24 0.426667-0.426667 64.512 64.426667-0.042667 0.042667 303.445334 303.445333-0.298667 0.042667zM663.466667 512l-174.08-168.149333L320.981333 512h342.442667zM128 85.333333h725.333333v85.333334H128v-85.333334z"  horiz-adv-x="1024" />

    
    <glyph glyph-name="ding" unicode="&#59757;" d="M364.202667 478.805333l138.325333 138.325334-30.165333 30.208 90.496 90.453333 271.530666-271.488-90.496-90.496-30.165333 30.165333-138.368-138.368 60.330667-60.330666-90.453334-90.496L213.333333 448.64l90.496 90.496 60.373334-60.330667z m128.426666-148.266666l162.901334 162.901333-65.536 65.536-162.901334-162.944 65.536-65.493333zM326.656 298.666667l60.373333-60.330667-198.698666-198.698667L128 99.968 326.698667 298.666667z"  horiz-adv-x="1024" />

    
    <glyph glyph-name="drop" unicode="&#59758;" d="M858.624 495.957333L874.666667 512h-768l85.333333-85.333333h0.341333l298.24-298.24 0.426667-0.426667 64.512 64.426667-0.042667 0.042666 303.445334 303.445334-0.298667 0.042666zM663.466667 426.666667l-174.08-168.149334L320.981333 426.666667h342.442667z"  horiz-adv-x="1024" />

    
    <glyph glyph-name="dollar" unicode="&#59759;" d="M554.666667 42.666667h-85.333334v-42.666667H384v48.042667A170.709333 170.709333 0 0 0 256 213.333333h85.333333a85.333333 85.333333 0 0 1 42.666667-73.898666v170.154666a192.085333 192.085333 0 0 0 0 362.154667V725.333333h85.333333v-42.666666h85.333334V725.333333h85.333333v-53.589333A192.170667 192.170667 0 0 0 766.848 512H680.533333A106.666667 106.666667 0 0 1 640 576v-196.138667c21.418667-5.888 43.776-17.578667 63.445333-32.768v-0.042666A170.709333 170.709333 0 0 0 640 48.085333L639.957333 0h-85.333333v42.666667z m0 341.333333V597.333333h-85.333334v-213.333333h85.333334z m0-256v170.666667h-85.333334v-170.666667h85.333334z m85.333333 11.434667a85.333333 85.333333 0 0 1 0 147.84v-147.84zM384 576c-25.898667-19.456-42.666667-50.432-42.666667-85.333333 0-34.901333 16.768-65.877333 42.666667-85.333334v170.666667z"  horiz-adv-x="1024" />

    
    <glyph glyph-name="duihua" unicode="&#59760;" d="M256 85.333333l-85.333333-85.333333V682.666667h640v-597.333334H256zM256 597.333333v-426.666666h469.333333V597.333333H256z m384-170.666666H341.333333V512h298.666667v-85.333333z m-85.333333-170.666667H341.333333v85.333333h213.333334v-85.333333z"  horiz-adv-x="1024" />

    
    <glyph glyph-name="edit" unicode="&#59762;" d="M458.922667 613.12l241.365333-241.365333-329.728-329.728H129.194667v241.365333l329.728 329.728z m0-122.453333l-244.394667-243.2v-120.106667H332.8l243.2 244.394667L458.922667 490.666667zM572.032 725.333333l241.365333-241.365333-72.832-72.832L499.2 652.501333 572.032 725.333333z"  horiz-adv-x="1024" />

    
    <glyph glyph-name="electronics" unicode="&#59763;" d="M533.333333 170.666667v-42.666667h-85.333333v42.666667H128V640h725.333333v-469.333333h-320zM213.333333 554.666667v-298.666667h554.666667V554.666667H213.333333z m426.666667-426.666667v-85.333333H341.333333v85.333333h298.666667z"  horiz-adv-x="1024" />

    
    <glyph glyph-name="English" unicode="&#59764;" d="M682.666667 341.333333v-170.666666h-85.333334v128h-42.666666v85.333333h128v-42.666667z m-298.666667-85.333333h42.666667v-85.333333H298.666667V512h128v-85.333333H384v-42.666667h42.666667v-85.333333H384v-42.666667zM170.666667 682.666667h640v-640H170.666667V682.666667z m85.333333-85.333334v-469.333333h469.333333V597.333333H256z m213.333333-213.333333h85.333334v-213.333333h-85.333334v213.333333z"  horiz-adv-x="1024" />

    
    <glyph glyph-name="error-s" unicode="&#59765;" d="M489.898667 422.997333l75.434666 75.434667 60.330667-60.330667-75.434667-75.434666 75.434667-75.434667-60.330667-60.330667-75.434666 75.434667-75.434667-75.434667L354.133333 287.232l75.434667 75.434667L354.133333 438.101333l60.330667 60.330667 75.434667-75.434667zM170.666667 682.666667h640v-640H170.666667V682.666667z m85.333333-85.333334v-469.333333h469.333333V597.333333H256z"  horiz-adv-x="1024" />

    
    <glyph glyph-name="enclosure" unicode="&#59766;" d="M298.666667 512H256a85.333333 85.333333 0 0 1 0-170.666667h361.173333A170.581333 170.581333 0 0 0 469.333333 256H256a170.666667 170.666667 0 0 0 0 341.333333h490.666667a234.666667 234.666667 0 0 0 0-469.333333H330.666667 341.333333v85.333333h405.333334a149.333333 149.333333 0 0 1 0 298.666667H298.666667zM266.666667 256H704a106.666667 106.666667 0 0 1 0 213.333333H266.666667 341.333333v-85.333333h362.666667a21.333333 21.333333 0 0 0 0-42.666667H341.333333v-85.333333H266.666667z"  horiz-adv-x="1024" />

    
    <glyph glyph-name="error-r" unicode="&#59767;" d="M490.666667 422.997333l75.434666 75.434667 60.330667-60.330667-75.434667-75.434666 75.434667-75.434667-60.330667-60.330667-75.434666 75.434667-75.434667-75.434667-60.330667 60.330667 75.434667 75.434667-75.434667 75.434666 60.330667 60.330667 75.434667-75.434667zM234.24 106.24A362.666667 362.666667 0 1 0 747.093333 619.093333 362.666667 362.666667 0 0 0 234.24 106.24z m60.842667 59.776a277.333333 277.333333 0 1 1 392.234666 392.234667 277.333333 277.333333 0 0 1-392.234666-392.234667z"  horiz-adv-x="1024" />

    
    <glyph glyph-name="exclamatory-mark-r" unicode="&#59768;" d="M490.666667 0a362.666667 362.666667 0 1 0 0 725.333333 362.666667 362.666667 0 0 0 0-725.333333z m0 85.333333a277.333333 277.333333 0 1 1 0 554.666667 277.333333 277.333333 0 0 1 0-554.666667z m42.666666 170.666667v-85.333333h-85.333333v85.333333h85.333333z m0 298.666667v-256h-85.333333V554.666667h85.333333z"  horiz-adv-x="1024" />

    
    <glyph glyph-name="exchange" unicode="&#59769;" d="M213.546667 511.146667l136.533333 136.533333L401.493333 596.053333 316.586667 511.146667H896v-85.333334H128l85.333333 85.333334h0.213334z m597.12-298.666667l-136.234667-136.192L622.933333 127.573333l84.821334 84.906667H128v85.333333h768l-85.333333-85.333333z"  horiz-adv-x="1024" />

    
    <glyph glyph-name="exclamatory-mark-t" unicode="&#59770;" d="M490.666667 725.333333L896 42.666667H85.333333l405.333334 682.666666z m-256-597.333333h512L490.752 576 234.666667 128z m213.333333 298.666667h85.333333v-128h-85.333333v128z m0-170.666667h85.333333v-85.333333h-85.333333v85.333333z"  horiz-adv-x="1024" />

    
    <glyph glyph-name="exclamatory-mark" unicode="&#59771;" d="M469.333333 0h85.333334v85.333333h-85.333334v-85.333333z m85.333334 128V725.333333h-85.333334v-597.333333h85.333334z"  horiz-adv-x="1024" />

    
    <glyph glyph-name="extend-r" unicode="&#59772;" d="M489.6 486.826667l1.706667 1.706666 150.826666-150.869333-60.330666-60.330667-92.202667 92.16-92.16-92.16L337.066667 337.664l150.869333 150.869333 1.664-1.706666zM490.666667 0a362.666667 362.666667 0 1 0 0 725.333333 362.666667 362.666667 0 0 0 0-725.333333z m0 85.333333a277.333333 277.333333 0 1 1 0 554.666667 277.333333 277.333333 0 0 1 0-554.666667z"  horiz-adv-x="1024" />

    
    <glyph glyph-name="extend" unicode="&#59773;" d="M512 252.330667L209.664 554.666667 149.333333 494.336l362.026667-362.026667 0.64 0.597334 0.597333-0.597334L874.666667 494.336 814.293333 554.666667 512 252.330667z"  horiz-adv-x="1024" />

    
    <glyph glyph-name="exit-fullscreen" unicode="&#59774;" d="M282.965333 213.333333H213.333333v85.333334h213.333334v-213.333334H341.333333v65.706667L215.893333 25.6l-60.330666 60.373333L282.965333 213.333333z m415.402667 0H768v85.333334h-213.333333v-213.333334h85.333333v65.706667l125.44-125.44 60.330667 60.373333L698.368 213.333333zM281.002667 512H213.333333v-85.333333h213.333334V640H341.333333v-67.669333L230.997333 682.666667 170.666667 622.336 281.002667 512z m423.594666 0H768v-85.333333h-213.333333V640h85.333333v-71.893333L754.56 682.666667 814.933333 622.336 704.597333 512z"  horiz-adv-x="1024" />

    
    <glyph glyph-name="finance" unicode="&#59776;" d="M477.098667 500.565333l-60.330667-60.330666L362.666667 494.336 422.997333 554.666667l54.101334-54.101334zM403.2 426.666667l-40.533333-40.533334V426.666667h40.533333z m45.653333-256l128 128h41.813334v-85.333334h-85.333334v-42.666666h-84.48zM810.666667 532.48V42.666667H320.853333l85.333334 85.333333H725.333333v319.146667l85.333334 85.333333zM170.666667 194.133333V682.666667h488.533333l-85.333333-85.333334H256v-317.866666l-85.333333-85.333334zM786.56 722.133333l60.330667-60.373333L188.330667 3.2 128 63.573333 786.56 722.133333z"  horiz-adv-x="1024" />

    
    <glyph glyph-name="favorites" unicode="&#59777;" d="M490.666667 78.592l-237.653334-84.48 6.954667 252.074667-153.770667 199.850666 241.92 71.253334L490.581333 725.333333l142.592-208 241.834667-71.296-153.770667-199.850666 6.954667-252.074667-237.610667 84.48z m0 90.581333l148.821333-52.906666-4.309333 157.866666 96.341333 125.269334-151.552 44.672-89.344 130.304-89.301333-130.304-151.552-44.672 96.341333-125.226667-4.352-157.952 148.906667 52.906667z"  horiz-adv-x="1024" />

    
    <glyph glyph-name="filter" unicode="&#59778;" d="M512 269.354667V149.333333l-42.666667 25.6v189.994667L298.666667 554.666667h384l-170.666667-189.482667v-95.829333z m85.333333 56.277333L896 640H85.333333l298.666667-314.368V128l213.333333-128v325.632z"  horiz-adv-x="1024" />

    
    <glyph glyph-name="first-page" unicode="&#59779;" d="M502.101333 362.666667l259.669334-259.626667L701.397333 42.666667l-319.36 319.36 0.64 0.597333-0.64 0.64L701.44 682.666667l60.373333-60.330667-259.669333-259.669333zM341.333333 682.666667H256v-640h85.333333V682.666667z"  horiz-adv-x="1024" />

    
    <glyph glyph-name="flash-lamp-auto" unicode="&#59780;" d="M883.2 512l-12.8-42.666667H810.666667l85.333333 213.333334 85.333333-213.333334h-59.733333l-12.8 42.666667h-25.6z m-214.741333-128H810.666667L298.666667-42.666667l102.4 341.333334H256l128 384h384l-99.541333-298.666667z m-118.4-85.333333l99.541333 298.666666h-204.074667l-71.125333-213.333333h141.354667l-53.888-179.584L574.933333 298.666667h-24.874666z"  horiz-adv-x="1024" />

    
    <glyph glyph-name="flash-lamp-off" unicode="&#59781;" d="M329.770667 61.013333l199.893333 199.893334L574.976 298.666667h-7.552l108.885333 108.885333-7.850666-23.552H810.666667L298.666667-42.666667l31.104 103.68zM265.728 298.666667H256l128 384h265.728l-85.333333-85.333334h-118.869334l-59.477333-178.346666L265.728 298.666667z m554.666667 448l60.330666-60.330667L166.997333-27.392 106.666667 32.938667 820.394667 746.666667z"  horiz-adv-x="1024" />

    
    <glyph glyph-name="flash-lamp" unicode="&#59782;" d="M668.458667 384H810.666667L298.666667-42.666667l102.4 341.333334H256l128 384h384l-99.541333-298.666667z m-118.4-85.333333l99.541333 298.666666h-204.074667l-71.125333-213.333333h141.354667l-53.888-179.584L574.933333 298.666667h-24.874666z"  horiz-adv-x="1024" />

    
    <glyph glyph-name="forward-r" unicode="&#59783;" d="M614.826667 361.6l1.706666 1.706667-150.869333 150.826666L405.333333 453.802667l92.16-92.202667-92.16-92.16 60.330667-60.373333 150.869333 150.869333-1.706666 1.664zM128 362.666667a362.666667 362.666667 0 1 1 725.333333 0 362.666667 362.666667 0 0 1-725.333333 0z m85.333333 0a277.333333 277.333333 0 1 0 554.666667 0 277.333333 277.333333 0 0 0-554.666667 0z"  horiz-adv-x="1024" />

    
    <glyph glyph-name="forbidden" unicode="&#59784;" d="M490.666667 0a362.666667 362.666667 0 1 0 0 725.333333 362.666667 362.666667 0 0 0 0-725.333333z m0 85.333333a277.333333 277.333333 0 1 1 0 554.666667 277.333333 277.333333 0 0 1 0-554.666667zM378.837333 534.869333l284.032-284.032-60.373333-60.373333-284.032 284.032L378.88 534.869333z"  horiz-adv-x="1024" />

    
    <glyph glyph-name="forward-sorting" unicode="&#59785;" d="M490.666667 263.936l-174.336-174.293333L256 149.973333 490.026667 384l0.64-0.597333 0.597333 0.597333L725.333333 149.973333 664.96 89.6 490.666667 263.936z m0 256l-174.336-174.293333L256 405.973333 490.026667 640l0.64-0.597333 0.597333 0.597333L725.333333 405.973333 664.96 345.6 490.666667 519.936z"  horiz-adv-x="1024" />

    
    <glyph glyph-name="fullscreen" unicode="&#59786;" d="M316.330667 128H384v-85.333333H170.666667v213.333333h85.333333v-67.626667L383.36 315.733333l60.330667-60.330666L316.330667 128z m344.405333 0H597.333333v-85.333333h213.333334v213.333333h-85.333334v-71.936L593.664 315.733333 533.333333 255.402667 660.736 128zM316.330667 597.333333H384V682.666667H170.666667v-213.333334h85.333333V537.002667L383.36 409.6 443.733333 469.973333 316.330667 597.333333z m344.362666 0H597.333333V682.666667h213.333334v-213.333334h-85.333334V541.269333l-131.669333-131.626666L533.333333 469.973333 660.693333 597.333333z"  horiz-adv-x="1024" />

    
    <glyph glyph-name="forward" unicode="&#59787;" d="M643.669333 384L341.333333 686.336 401.664 746.666667l362.026667-362.026667-0.597334-0.64 0.597334-0.597333L401.664 21.333333 341.333333 81.706667 643.669333 384z"  horiz-adv-x="1024" />

    
    <glyph glyph-name="gifts" unicode="&#59788;" d="M448 512H256v-149.333333h192V512z m85.333333-149.333333H725.333333V512h-192v-149.333333z m0-234.666667H725.333333v149.333333h-192V128z m-85.333333 0v149.333333H256V128h192z m129.536 469.333333H810.666667v-554.666666H170.666667V597.333333h233.130666L342.4 658.773333 402.773333 719.061333 490.666667 631.168l87.893333 87.893333 60.373333-60.330666L577.493333 597.333333z"  horiz-adv-x="1024" />

    
    <glyph glyph-name="free" unicode="&#59789;" d="M533.333333 298.666667h85.333334v-85.333334h-85.333334v-42.666666h-85.333333v42.666666h-85.333333v85.333334h85.333333v42.666666h-85.333333v85.333334h67.669333L362.666667 494.336 422.997333 554.666667l67.498667-67.498667L557.994667 554.666667l60.373333-60.330667L550.698667 426.666667H618.666667v-85.333334h-85.333334v-42.666666zM810.666667 682.666667v-640H170.666667V682.666667h640zM256 597.333333v-469.333333h469.333333V597.333333H256z"  horiz-adv-x="1024" />

    
    <glyph glyph-name="folder" unicode="&#59790;" d="M682.666667 597.333333h170.666666v-512H128V682.666667h222.464l42.666667-42.666667H853.333333v-42.666667h-170.666666zM213.333333 554.666667v-384h554.666667V554.666667H213.333333z m341.333334-256h170.666666v-85.333334h-170.666666v85.333334z"  horiz-adv-x="1024" />

    
    <glyph glyph-name="good-r" unicode="&#59791;" d="M426.666667 341.333333V554.666667h74.666666l40.021334-85.333334H682.666667v-256h-256v128z m64-341.333333a362.666667 362.666667 0 1 0 0 725.333333 362.666667 362.666667 0 0 0 0-725.333333z m0 85.333333a277.333333 277.333333 0 1 1 0 554.666667 277.333333 277.333333 0 0 1 0-554.666667zM298.666667 469.333333h85.333333v-256H298.666667v256z"  horiz-adv-x="1024" />

    
    <glyph glyph-name="good" unicode="&#59792;" d="M512 469.333333l-42.666667 170.666667H384v-512h341.333333v341.333333h-213.333333z m-213.333333-170.666666V725.333333h256l37.333333-170.666666H810.666667v-512H298.666667v256zM170.666667 554.666667h85.333333v-512H170.666667V554.666667z"  horiz-adv-x="1024" />

    
    <glyph glyph-name="group" unicode="&#59793;" d="M640 99.669333L569.002667 170.666667h-242.346667L256 99.968V85.333333h384v14.336z m84.949333 35.584H725.333333V0H170.666667v135.253333h0.085333L170.666667 135.338667 291.328 256l0.085333-0.085333V256h313.173334v-0.256l120.448-120.405333-0.085334-0.085334zM768 128h32.426667-32.426667l0.042667 21.333333-106.666667 106.666667h-185.002667 256.042667l0.170667-0.128 0.128 0.128 120.704-120.704-0.256-0.213333V0h-319.914667 234.581333L768 128z m-234.709333 176.853333a149.418667 149.418667 0 0 1 106.666666 143.146667v85.333333a149.418667 149.418667 0 0 1-106.666666 143.146667 149.290667 149.290667 0 0 0 191.914666-143.104V448a149.290667 149.290667 0 0 0-191.914666-143.104zM448 682.666667A149.333333 149.333333 0 0 0 597.333333 533.333333v-85.333333a149.333333 149.333333 0 1 0-298.666666 0v85.333333A149.333333 149.333333 0 0 0 448 682.666667z m0-85.333334A64 64 0 0 1 384 533.333333v-85.333333a64 64 0 0 1 128 0v85.333333A64 64 0 0 1 448 597.333333z"  horiz-adv-x="1024" />

    
    <glyph glyph-name="home" unicode="&#59794;" d="M512 128v85.333333h-42.666667v-85.333333h42.666667z m85.333333 0h170.666667v213.333333l-277.504 273.066667L213.333333 341.333333v-213.333333h170.666667v170.666667h213.333333v-170.666667z m256 190.037333V42.666667H128v275.370666H83.2L490.496 725.333333l407.296-407.296H853.333333z"  horiz-adv-x="1024" />

    
    <glyph glyph-name="history" unicode="&#59795;" d="M448.597333 341.333333l-0.597333-0.597333 150.869333-150.869333 60.330667 60.330666-125.866667 125.866667V554.666667h-85.333333v-213.333334h0.597333zM51.882667 597.333333l107.52-107.52 0.170666 0.085334 61.568-61.525334a277.333333 277.333333 0 1 0-2.986666-117.76l-88.533334 88.618667a367.402667 367.402667 0 0 1-1.834666-36.565333c0-200.405333 162.389333-362.88 362.666666-362.88 200.32 0 362.666667 162.474667 362.666667 362.88 0 200.405333-162.346667 362.88-362.666667 362.88a362.154667 362.154667 0 0 1-294.741333-151.381334L172.544 597.333333H51.882667z"  horiz-adv-x="1024" />

    
    <glyph glyph-name="image-text" unicode="&#59796;" d="M170.666667 682.666667h640v-640H170.666667V682.666667z m85.333333-85.333334v-469.333333h469.333333V597.333333H256z m213.333333-85.333333h213.333334v-85.333333h-213.333334V512z m-170.666666-256h384v-85.333333H298.666667v85.333333z m0 128h384v-85.333333H298.666667v85.333333z m64 42.666667a64 64 0 1 0 0 128 64 64 0 0 0 0-128z"  horiz-adv-x="1024" />

    
    <glyph glyph-name="horizontal-retractio" unicode="&#59797;" d="M302.336 384L256 430.336 316.330667 490.666667l148.693333-148.693334-0.597333-0.64 0.597333-0.597333L316.330667 192 256 252.373333 302.293333 298.666667H85.333333v85.333333h217.002667z m372.394667 0l46.293333 46.336L660.693333 490.666667 512 341.973333l0.597333-0.64-0.597333-0.597333 148.693333-148.693333 60.330667 60.330666L674.730667 298.666667H896v85.333333h-221.269333z"  horiz-adv-x="1024" />

    
    <glyph glyph-name="horizontal-expansion" unicode="&#59798;" d="M771.669333 384L725.333333 430.336 785.664 490.666667l148.693333-148.693334-0.597333-0.64 0.597333-0.597333-148.693333-148.693333L725.333333 252.373333 771.626667 298.666667H554.666667v85.333333h217.002666zM248.064 384l46.293333 46.336L234.026667 490.666667 85.333333 341.973333l0.597334-0.64-0.597334-0.597333L234.026667 192 294.4 252.373333 248.064 298.666667H469.333333v85.333333H248.064z"  horiz-adv-x="1024" />

    
    <glyph glyph-name="horn" unicode="&#59799;" d="M453.290667 751.957333L469.333333 768v-768l-85.333333 85.333333v0.341334l-298.24 298.24-0.426667 0.426666 64.426667 64.512 0.042667-0.042666 303.445333 303.445333 0.042667-0.298667zM384 556.8l-168.149333-174.08L384 214.314667V556.757333z m170.666667 122.88a298.752 298.752 0 0 0 0-591.274667V174.933333a213.418667 213.418667 0 0 1 0 418.133334V679.68z m0-130.346667a170.752 170.752 0 0 0 0-330.581333v91.392a85.333333 85.333333 0 0 1 0 147.797333V549.290667z"  horiz-adv-x="1024" />

    
    <glyph glyph-name="import" unicode="&#59800;" d="M630.613333 562.56l119.808 119.893333 58.112-58.154666V682.666667h-340.181333v-85.333334H255.701333v-469.333333h467.797334v213.333333h85.034666V619.861333l-117.717333-117.76 31.701333-31.786666 56.32-56.32-0.384-0.341334 30.08-30.208h-297.642666V384h-0.085334V681.642667l42.581334-42.453334V640l77.226666-77.44zM705.792 426.666667h-152.362667v-0.554667h152.917334L705.834667 426.666667z m102.698667 197.632l2.218666-2.218667-2.218666-2.218667V42.666667H170.666667V682.666667h637.866666v-58.368z"  horiz-adv-x="1024" />

    
    <glyph glyph-name="image" unicode="&#59801;" d="M768 208.896V554.666667H213.333333v-351.872l84.736 84.736 99.157334-99.2L592.896 384 768 208.896zM853.333333 640v-554.666667H128V640h725.333333z"  horiz-adv-x="1024" />

    
    <glyph glyph-name="info-r" unicode="&#59802;" d="M533.333333 256h42.666667v-85.333333h-170.666667v85.333333h42.666667v128h-42.666667v85.333333h128v-213.333333z m-42.666666-256a362.666667 362.666667 0 1 0 0 725.333333 362.666667 362.666667 0 0 0 0-725.333333z m0 85.333333a277.333333 277.333333 0 1 1 0 554.666667 277.333333 277.333333 0 0 1 0-554.666667z m42.666666 512v-85.333333h-85.333333V597.333333h85.333333z"  horiz-adv-x="1024" />

    
    <glyph glyph-name="info" unicode="&#59803;" d="M469.333333 85.333333V597.333333h85.333334v-512h128v-85.333333H341.333333v85.333333h128z m0 640h85.333334v-85.333333h-85.333334V725.333333zM384 597.333333h85.333333v-85.333333H384V597.333333z"  horiz-adv-x="1024" />

    
    <glyph glyph-name="information" unicode="&#59804;" d="M469.333333 298.666667v-128H298.666667v213.333333h170.666666v-85.333333z m-42.666666-85.333334H341.333333h85.333334z m256 298.666667v-85.333333H298.666667V554.666667h384v-42.666667z m-42.666667-42.666667H341.333333h298.666667zM170.666667 682.666667h640v-640H170.666667V682.666667z m85.333333-85.333334v-469.333333h469.333333V597.333333H256z m256-341.333333h170.666667v-85.333333h-170.666667v85.333333z m0 128h170.666667v-85.333333h-170.666667v85.333333z"  horiz-adv-x="1024" />

    
    <glyph glyph-name="key" unicode="&#59732;" d="M419.157333 398.506667a213.333333 213.333333 0 1 0 58.965334-61.738667L380.330667 238.933333l48.469333-48.469333-60.330667-60.330667L320 178.602667l-29.269333-29.269334 48.469333-48.469333-60.330667-60.330667L170.666667 148.736l0.597333 0.597333L170.666667 149.973333l248.490666 248.490667zM599.808 640a128 128 0 1 1 0-256 128 128 0 0 1 0 256z"  horiz-adv-x="1024" />

    
    <glyph glyph-name="international" unicode="&#59806;" d="M506.453333 0.341333a362.666667 362.666667 0 1 0 4.138667 724.48h1.92l0.085333-0.128a362.666667 362.666667 0 0 0 51.413334-717.269333 316.330667 316.330667 0 0 0-57.557334-7.082667z m-34.389333 85.589334c0 28.16 0 62.677333 0.085333 103.509333l-50.432 66.517333 122.368 122.368 50.944-46.421333h115.242667l46.762667-46.72a277.333333 277.333333 0 0 1-277.674667 354.602667l-49.194667-48.725334 58.965334-58.922666-3.84-100.821334-99.413334-99.413333L238.506667 478.293333a277.333333 277.333333 0 0 1 233.557333-392.32z"  horiz-adv-x="1024" />

    
    <glyph glyph-name="keyboard" unicode="&#59807;" d="M853.333333 640v-512H128V640h725.333333zM341.333333 426.666667H256v-85.333334h85.333333v85.333334z m128 0H384v-85.333334h85.333333v85.333334z m128 0h-85.333333v-85.333334h85.333333v85.333334z m128 0h-85.333333v-85.333334h85.333333v85.333334zM341.333333 554.666667H213.333333v-85.333334h128V554.666667z m128 0H384v-85.333334h85.333333V554.666667z m128 0h-85.333333v-85.333334h85.333333V554.666667z m170.666667 0h-128v-85.333334h128V554.666667zM341.333333 298.666667H213.333333v-85.333334h128v85.333334z m170.666667 0H384v-85.333334h128v85.333334z m85.333333 0h-85.333333v-85.333334h85.333333v85.333334z m170.666667 0h-128v-85.333334h128v85.333334z"  horiz-adv-x="1024" />

    
    <glyph glyph-name="last-page" unicode="&#59808;" d="M524.202667 362.666667L264.533333 103.04 324.864 42.666667l319.36 319.36-0.597333 0.597333 0.597333 0.64L324.864 682.666667 264.533333 622.336l259.669334-259.669333zM684.970667 682.666667h85.333333v-640h-85.333333V682.666667z"  horiz-adv-x="1024" />

    
    <glyph glyph-name="increase" unicode="&#59809;" d="M554.666667 605.269333l131.626666-131.626666L746.666667 533.973333 512.597333 768 512 767.402667 511.36 768 277.333333 533.973333 337.664 473.6 469.333333 605.269333v-641.706666h85.333334V605.269333z"  horiz-adv-x="1024" />

    
    <glyph glyph-name="left" unicode="&#59810;" d="M248.064 426.666667l131.626667 131.669333L319.36 618.666667 85.333333 384.64l0.597334-0.64-0.597334-0.597333L319.36 149.333333 379.733333 209.706667 248.064 341.333333h641.706667v85.333334H248.064z"  horiz-adv-x="1024" />

    
    <glyph glyph-name="letter" unicode="&#59811;" d="M720.469333 554.666667H261.248l229.632-175.018667L720.426667 554.666667zM768 495.274667l-275.754667-210.474667-0.426666-1.749333-0.938667 0.682666-0.938667-0.682666-0.469333 1.749333L213.333333 495.36V170.666667h554.666667V495.274667zM853.333333 640v-554.666667H128V640h725.333333z"  horiz-adv-x="1024" />

    
    <glyph glyph-name="lefy-exchange" unicode="&#59812;" d="M213.546667 425.813333l136.533333 136.533334L401.493333 510.72l-84.906666-84.906667H896v-85.333333H128l85.333333 85.333333h0.213334z"  horiz-adv-x="1024" />

    
    <glyph glyph-name="left-sorting" unicode="&#59813;" d="M589.397333 362.666667l174.293334-174.293334L703.36 128 469.333333 362.069333l0.597334 0.597334-0.597334 0.64L703.36 597.333333 763.733333 537.002667 589.397333 362.666667z m-256 0l174.293334-174.293334L447.36 128 213.333333 362.069333l0.597334 0.597334L213.333333 363.306667 447.36 597.333333 507.733333 537.002667 333.397333 362.666667z"  horiz-adv-x="1024" />

    
    <glyph glyph-name="light" unicode="&#59814;" d="M638.549333 213.333333H640v-128H341.333333v128h1.450667a277.333333 277.333333 0 1 0 295.722667 0zM554.666667 195.712v71.253333A192.085333 192.085333 0 0 1 490.666667 640a192 192 0 0 1-64-373.077333V170.666667h128v25.045333zM597.333333 42.666667v-85.333334H384v85.333334h213.333333z m-64 341.333333v-85.333333h-85.333333v85.333333h85.333333zM426.666667 469.333333h128v-85.333333h-128v85.333333z"  horiz-adv-x="1024" />

    
    <glyph glyph-name="like" unicode="&#59815;" d="M460.501333 72.832l30.165334 29.824 30.165333-29.824 30.165333-30.165333-60.330666-60.330667-30.165334 30.165333c-12.458667 12.458667-83.2 81.92-104.106666 102.912-56.832 57.130667-98.986667 103.296-133.845334 148.48C161.28 343.253333 128 413.568 128 480 128 600.064 214.997333 682.666667 330.666667 682.666667c62.933333 0 121.6-28.928 160-78.250667A202.282667 202.282667 0 0 0 650.666667 682.666667C766.336 682.666667 853.333333 600.064 853.333333 480c0-66.432-33.28-136.704-94.549333-216.106667-34.816-45.184-77.013333-91.349333-133.888-148.48-20.864-20.992-91.605333-90.453333-104.064-102.912l-30.165333-30.165333L430.336 42.666667l30.165333 30.165333z m5.930667 53.717333l24.234667-23.893333 24.405333 24.064c25.344 25.002667 41.258667 40.746667 49.365333 48.896 56.746667 57.002667 95.616 100.010667 126.805334 140.373333C744.277333 384.853333 768 437.973333 768 480 768 551.082667 721.066667 597.333333 650.666667 597.333333c-36.394667 0-70.314667-16.64-92.672-45.354666L490.666667 465.493333 423.338667 551.978667A116.949333 116.949333 0 0 1 330.666667 597.333333C260.266667 597.333333 213.333333 551.082667 213.333333 480c0-42.069333 23.722667-95.189333 76.8-163.968 31.146667-40.405333 69.973333-83.413333 126.762667-140.416 8.106667-8.106667 24.021333-23.893333 49.536-49.066667z"  horiz-adv-x="1024" />

    
    <glyph glyph-name="link" unicode="&#59816;" d="M544.213333 333.226667l57.642667 57.6 21.930667-21.888 114.346666 114.346666-120.661333 120.746667-114.346667-114.389333 8.234667-8.277334-57.642667-57.6L384 493.397333 615.893333 725.333333l241.365334-241.365333-231.893334-231.893333-81.152 81.152z m-157.269333 23.722666l-59.861333-59.861333-8.277334 8.234667-114.346666-114.346667 120.661333-120.704 114.346667 114.346667-21.888 21.930666 59.861333 59.904 81.152-81.152-231.893333-231.893333L85.333333 194.773333 317.226667 426.666667l69.717333-69.717334zM573.226667 512l60.330666-60.330667-274.56-274.56L298.666667 237.44 573.226667 512z"  horiz-adv-x="1024" />

    
    <glyph glyph-name="line" unicode="&#59817;" d="M725.333333 178.261333V213.333333H256a42.666667 42.666667 0 0 0 0 85.333334h469.333333c52.181333 0.256 91.008 25.173333 116.437334 74.752A128 128 0 0 1 725.333333 554.666667H376.618667l39.082666 39.082666L355.328 654.08 234.666667 533.418667V533.333333L170.666667 469.333333h85.333333V512.085333 469.333333h469.333333a42.666667 42.666667 0 0 0 0-85.333333H256a128 128 0 1 1 0-256h348.970667l-35.370667-35.328 60.330667-60.373333 120.704 120.704-0.170667 0.128L810.666667 213.333333h-85.333334v-35.072L690.261333 213.333333l-85.333333-85.333333zM853.333333 256z"  horiz-adv-x="1024" />

    
    <glyph glyph-name="load" unicode="&#59818;" d="M255.189333 627.626667H256V170.666667H170.666667V592.469333l-96 96L134.997333 748.8l120.704-120.661333-0.512-0.512zM512 554.666667H384v-256h341.333333V554.666667h-128v-85.333334h-85.333333V554.666667zM298.666667 640h512v-426.666667H298.666667V640z m554.666666-469.333333v-85.333334H170.666667v85.333334h682.666666zM256 0a42.666667 42.666667 0 1 0 0 85.333333 42.666667 42.666667 0 0 0 0-85.333333z m512 0a42.666667 42.666667 0 1 0 0 85.333333 42.666667 42.666667 0 0 0 0-85.333333z"  horiz-adv-x="1024" />

    
    <glyph glyph-name="loading-" unicode="&#59819;" d="M219.008 122.368A362.666667 362.666667 0 0 0 469.333333 724.693333v-85.504a277.333333 277.333333 0 0 1-188.672-457.642666l-61.653333-59.178667z"  horiz-adv-x="1024" />

    
    <glyph glyph-name="loading-1" unicode="&#59820;" d="M362.496 23.296l68.48 68.48a277.333333 277.333333 0 0 1 330.581333 330.581333l68.48 68.48A362.666667 362.666667 0 0 0 362.496 23.296z m-211.2 211.2A362.666667 362.666667 0 0 0 618.837333 702.037333L550.4 633.557333a277.333333 277.333333 0 0 1-330.581333-330.581333l-68.48-68.48z"  horiz-adv-x="1024" />

    
    <glyph glyph-name="lock" unicode="&#59821;" d="M213.333333 469.333333h554.666667v-469.333333H213.333333V469.333333z m85.333334-85.333333v-298.666667h384v298.666667H298.666667z m-21.333334 42.666667H213.333333v42.666666h85.333334V533.333333a192 192 0 0 0 384 0V469.333333h85.333333v-42.666666h-170.666667V533.333333a106.666667 106.666667 0 0 1-213.333333 0V426.666667H277.333333z m213.333334-256a64 64 0 1 0 0 128 64 64 0 0 0 0-128z"  horiz-adv-x="1024" />

    
    <glyph glyph-name="loan" unicode="&#59822;" d="M914.56 362.666667l0.64-0.597334-150.869333-150.869333-60.330667 60.330667 91.136 91.136-91.136 91.136 60.330667 60.330666 150.869333-150.826666-0.64-0.64zM554.666667 298.666667h85.333333v-85.333334h-85.333333v-42.666666h-85.333334v42.666666H384v85.333334h85.333333v42.666666H384v85.333334h67.669333L384 494.336 444.330667 554.666667l67.498666-67.498667L579.328 554.666667l60.373333-60.330667L572.032 426.666667H640v-85.333334h-85.333333v-42.666666z m256 256h-85.333334V597.333333H256v-469.333333h469.333333v42.666667h85.333334v-128H170.666667V682.666667h640v-128z"  horiz-adv-x="1024" />

    
    <glyph glyph-name="location" unicode="&#59823;" d="M533.333333 679.850667a320.170667 320.170667 0 0 0 274.517334-274.517334H896v-85.333333h-88.149333a320.170667 320.170667 0 0 0-274.517334-274.517333V-42.666667h-85.333333v88.149334A320.170667 320.170667 0 0 0 173.482667 320H85.333333v85.333333h88.149334A320.170667 320.170667 0 0 0 448 679.850667V768h85.333333v-88.149333zM490.666667 128a234.666667 234.666667 0 1 1 0 469.333333 234.666667 234.666667 0 0 1 0-469.333333z"  horiz-adv-x="1024" />

    
    <glyph glyph-name="logistics" unicode="&#59824;" d="M896 425.130667V128H128V640h597.333333v-128h83.797334L896 425.130667zM216.96 128a64 64 0 0 1 120.746667 0h-120.746667z m469.333333 0a64 64 0 0 1 120.746667 0h-120.746667zM213.333333 554.666667v-341.333334h426.666667V554.666667H213.333333z m512-128v-213.333334h85.333334v170.666667l-42.666667 42.666667h-42.666667z"  horiz-adv-x="1024" />

    
    <glyph glyph-name="macbook" unicode="&#59825;" d="M853.333333 170.666667h42.666667v-85.333334H85.333333v85.333334h42.666667V640h725.333333v-469.333333zM213.333333 554.666667v-341.333334h554.666667V554.666667H213.333333z"  horiz-adv-x="1024" />

    
    <glyph glyph-name="logout" unicode="&#59826;" d="M752.469333 320H554.666667v85.333333h197.802666L704 453.802667l60.330667 60.330666 150.869333-150.826666-0.64-0.64 0.64-0.597334-150.869333-150.869333-60.330667 60.330667 48.469333 48.469333zM682.666667 554.666667h-85.333334V597.333333H256v-469.333333h341.333333v42.666667h85.333334v-128H170.666667V682.666667h512v-128z"  horiz-adv-x="1024" />

    
    <glyph glyph-name="minus-r" unicode="&#59827;" d="M490.666667 0a362.666667 362.666667 0 1 0 0 725.333333 362.666667 362.666667 0 0 0 0-725.333333z m0 85.333333a277.333333 277.333333 0 1 1 0 554.666667 277.333333 277.333333 0 0 1 0-554.666667zM298.666667 405.333333h384v-85.333333H298.666667v85.333333z"  horiz-adv-x="1024" />

    
    <glyph glyph-name="map-" unicode="&#59828;" d="M725.333333 85.333333v85.333334h42.666667V554.666667H213.333333v-384h213.333334v-85.333334H128V640h725.333333v-554.666667h-128z m-149.333333 0c-71.125333 56.874667-106.666667 108.074667-106.666667 153.6 0 56.533333 47.786667 102.4 106.666667 102.4s106.666667-45.866667 106.666667-102.4c0-45.738667-35.541333-96.938667-106.666667-153.6z m0 128a21.333333 21.333333 0 1 1 0 42.666667 21.333333 21.333333 0 0 1 0-42.666667z"  horiz-adv-x="1024" />

    
    <glyph glyph-name="map-1" unicode="&#59829;" d="M768 64V0H213.333333v170.666667h85.333334v-85.333334h384v85.333334h85.333333v-106.666667z m-110.976 261.12l0.170667-0.170667-165.930667-165.973333-0.512 0.554667-0.554667-0.512L324.266667 324.949333l0.128 0.128a234.666667 234.666667 0 1 0 332.629333 0.085334z m-61.013333 59.306667l-0.213334 0.213333a149.333333 149.333333 0 1 1-210.304 0l-0.085333-0.128 105.344-105.386667 105.258667 105.301334zM490.666667 426.666667a64 64 0 1 0 0 128 64 64 0 0 0 0-128zM213.333333 256h85.333334l85.333333-85.333333H213.333333v85.333333z m469.333334 0h85.333333v-85.333333h-170.666667l85.333334 85.333333z"  horiz-adv-x="1024" />

    
    <glyph glyph-name="mic" unicode="&#59830;" d="M533.333333 88.576V0h-85.333333v88.576A277.461333 277.461333 0 0 0 214.144 341.333333h85.674667a192 192 0 0 1 381.653333 0h85.717333a277.461333 277.461333 0 0 0-233.856-252.757333zM490.666667 725.333333A106.666667 106.666667 0 0 0 597.333333 618.666667v-256a106.666667 106.666667 0 1 0-213.333333 0v256A106.666667 106.666667 0 0 0 490.666667 725.333333z"  horiz-adv-x="1024" />

    
    <glyph glyph-name="minus" unicode="&#59831;" d="M170.666667 426.666667h682.666666v-85.333334H170.666667z"  horiz-adv-x="1024" />

    
    <glyph glyph-name="mobile-Phone" unicode="&#59832;" d="M298.666667 0H256V725.333333h469.333333v-725.333333H298.666667z m42.666666 85.333333h298.666667V640H341.333333v-554.666667z m85.333334 42.666667v42.666667h128v-42.666667h-128z"  horiz-adv-x="1024" />

    
    <glyph glyph-name="minus-s" unicode="&#59833;" d="M170.666667 682.666667h640v-640H170.666667V682.666667z m85.333333-85.333334v-469.333333h469.333333V597.333333H256z m384-192v-85.333333H341.333333v85.333333h298.666667z"  horiz-adv-x="1024" />

    
    <glyph glyph-name="money" unicode="&#59834;" d="M533.333333 341.333333H597.333333v-85.333333h-64v-42.666667h-85.333333v42.666667H384v85.333333h64v31.402667l-78.933333 78.933333L429.397333 512l64.298667-64.298667L557.994667 512l60.373333-60.330667-85.034667-85.034666V341.333333z m320-84.266666V85.333333H128V640h725.333333V257.066667zM768 448V554.666667H213.333333v-106.666667c25.898667-19.456 42.666667-50.432 42.666667-85.333333 0-34.901333-16.768-65.877333-42.666667-85.333334V170.666667h554.666667v106.666666a106.496 106.496 0 0 0-42.666667 85.333334c0 34.901333 16.768 65.877333 42.666667 85.333333z"  horiz-adv-x="1024" />

    
    <glyph glyph-name="monitor" unicode="&#59835;" d="M533.333333 130.816V85.333333H682.666667v-85.333333H298.666667v85.333333h149.333333v45.482667a320.042667 320.042667 0 0 0 0 634.368V768h85.333333v-2.816a320.042667 320.042667 0 0 0 0-634.368zM490.666667 213.333333a234.666667 234.666667 0 1 1 0 469.333334 234.666667 234.666667 0 0 1 0-469.333334z m0 170.666667a64 64 0 1 0 0 128 64 64 0 0 0 0-128z"  horiz-adv-x="1024" />

    
    <glyph glyph-name="money-bill" unicode="&#59836;" d="M530.773333 341.333333h2.56v-21.333333H597.333333v-85.333333h-64V170.666667h-85.333333v64H384v85.333333h64V341.333333h1.706667L366.933333 424.106667l60.330667 60.330666 62.933333-62.933333 62.933334 62.933333 60.330666-60.373333L530.773333 341.333333zM405.333333 725.333333c19.456 25.898667 50.432 42.666667 85.333334 42.666667 34.901333 0 65.877333-16.768 85.333333-42.666667H768v-725.333333H213.333333V725.333333h192zM384 640H298.666667v-554.666667h384V640h-85.333334v-42.666667H384V640z"  horiz-adv-x="1024" />

    
    <glyph glyph-name="moneys" unicode="&#59837;" d="M469.333333 341.333333h85.333334v-85.333333h-85.333334v-42.666667H384v42.666667H298.666667v85.333333h85.333333v25.002667l-85.333333 85.333333L358.997333 512l68.565334-68.565333L496.128 512l60.373333-60.330667L469.333333 364.501333V341.333333z m469.333334 129.066667V85.333333h-85.333334v194.133334a106.496 106.496 0 0 0-42.666666 85.333333c0 34.901333 16.768 65.877333 42.666666 85.333333V640h85.333334v-169.6z m-128-213.333333V85.333333H85.333333V640h725.333334V257.066667zM725.333333 448V554.666667H170.666667v-106.666667c25.898667-19.456 42.666667-50.432 42.666666-85.333333 0-34.901333-16.768-65.877333-42.666666-85.333334V170.666667h554.666666v106.666666a106.496 106.496 0 0 0-42.666666 85.333334c0 34.901333 16.768 65.877333 42.666666 85.333333z"  horiz-adv-x="1024" />

    
    <glyph glyph-name="more-transverse" unicode="&#59838;" d="M853.333333 426.666667v-128h-128v128h128z m-298.666666 0v-128h-128v128h128z m-298.666667 0v-128H128v128h128z"  horiz-adv-x="1024" />

    
    <glyph glyph-name="locker" unicode="&#59839;" d="M128 640h213.333333v-170.666667H128V640z m0-213.333333h213.333333v-128H128v128z m0-170.666667h213.333333v-170.666667H128v170.666667z m512 384h213.333333v-170.666667h-213.333333V640z m0-213.333333h213.333333v-128h-213.333333v128z m0-170.666667h213.333333v-170.666667h-213.333333v170.666667z m-256 85.333333h213.333333v-256H384v256z m0 298.666667h213.333333v-256H384V640z"  horiz-adv-x="1024" />

    
    <glyph glyph-name="more-vertical" unicode="&#59840;" d="M426.666667 725.333333h128v-128h-128V725.333333z m0-298.666666h128v-128h-128v128z m0-298.666667h128v-128h-128v128z"  horiz-adv-x="1024" />

    
    <glyph glyph-name="nav-list" unicode="&#59746;" d="M725.333333 213.333333h-42.666666v-85.333333h42.666666v-42.666667h85.333334v42.666667h42.666666v85.333333h-42.666666v42.666667h-85.333334v-42.666667zM170.666667 640h682.666666v-85.333333H170.666667V640z m0-426.666667h426.666666v-85.333333H170.666667v85.333333z m0 213.333334h682.666666v-85.333334H170.666667v85.333334z"  horiz-adv-x="1024" />

    
    <glyph glyph-name="news" unicode="&#59842;" d="M341.333333 128h277.333334-21.333334V597.333333H256v-469.333333h85.333333z m-170.666666 0V682.666667h512v-533.333334a21.333333 21.333333 0 0 1 42.666666 0.298667V469.333333h-42.666666V554.666667h128v-426.666667a85.333333 85.333333 0 0 0-85.333334-85.333333H256a85.333333 85.333333 0 0 0-85.333333 85.333333zM298.666667 554.666667h256v-85.333334H298.666667V554.666667z m0-128h256v-85.333334H298.666667v85.333334z m0-128h170.666666v-85.333334H298.666667v85.333334z"  horiz-adv-x="1024" />

    
    <glyph glyph-name="no-attendance" unicode="&#59843;" d="M548.096 362.666667l75.434667-75.434667-60.330667-60.330667-75.434667 75.434667-75.434666-75.434667-60.330667 60.330667 75.434667 75.434667-75.434667 75.434666 60.330667 60.330667 75.434666-75.434667L563.2 498.432l60.330667-60.330667-75.434667-75.434666zM341.333333 725.333333v-85.333333H256V725.333333h85.333333z m384 0v-85.333333h-85.333333V725.333333h85.333333z m128-85.333333v-554.666667H128V640h725.333333zM213.333333 554.666667v-384h554.666667V554.666667H213.333333z"  horiz-adv-x="1024" />

    
    <glyph glyph-name="not-sign" unicode="&#59844;" d="M621.056 640H597.333333v-21.333333V640H384v-42.666667h194.389333H384V640H298.666667v-322.389333l-85.333334-85.333334V725.333333h192c19.456 25.898667 50.432 42.666667 85.333334 42.666667 34.901333 0 65.877333-16.768 85.333333-42.666667h130.389333l-85.333333-85.333333zM682.666667 399.914667l85.333333 85.333333V0H282.752l85.333333 85.333333H682.666667v314.581334z m-85.333334 216.32V618.666667v-2.389334zM813.056 746.666667l60.373333-60.330667L166.997333-20.096 106.666667 40.277333 813.056 746.666667z"  horiz-adv-x="1024" />

    
    <glyph glyph-name="navigation" unicode="&#59845;" d="M377.856 247.722667L119.893333 368.085333l765.696 387.328-387.328-765.696-120.405333 258.005334z m64.213333 64.170666l59.306667-127.018666 190.72 377.045333-377.045333-190.72 127.018666-59.306667z"  horiz-adv-x="1024" />

    
    <glyph glyph-name="network" unicode="&#59846;" d="M170.666667 682.666667h640v-213.333334h-85.333334V597.333333H213.333333v-128H128V682.666667h42.666667z m426.666666-213.333334v-21.333333a64 64 0 0 1 128 0V469.333333h85.333334v32-53.333333a149.333333 149.333333 0 0 0-245.333334-114.389333A148.736 148.736 0 0 0 469.333333 298.666667a148.736 148.736 0 0 0-96 34.944 148.736 148.736 0 0 0-117.333333-33.450667V128h256v-85.333333H170.666667v298.666666h2.133333A148.906667 148.906667 0 0 0 128 448V501.333333 469.333333h85.333333v-21.333333a64 64 0 0 1 128 0V469.333333h64v-21.333333a64 64 0 0 1 128 0V469.333333H597.333333z m256-341.333333v-85.333333h-170.666666v85.333333h170.666666z m0 128v-85.333333h-170.666666v85.333333h170.666666z m-213.333333-128v-85.333333h-85.333333v85.333333h85.333333z m0 128v-85.333333h-85.333333v85.333333h85.333333z"  horiz-adv-x="1024" />

    
    <glyph glyph-name="notice" unicode="&#59847;" d="M448 679.424V768h85.333333v-88.576A277.418667 277.418667 0 0 0 768 405.333333V128H213.333333v277.333333a277.418667 277.418667 0 0 0 234.666667 274.090667zM299.818667 384H298.666667v-170.666667h384v170.666667h-1.152a192 192 0 1 1-381.653334 0zM384 85.333333h213.333333v-85.333333H384v85.333333z"  horiz-adv-x="1024" />

    
    <glyph glyph-name="office" unicode="&#59848;" d="M341.333333 597.333333H256v-469.333333h85.333333V597.333333z m85.333334 0v-469.333333h298.666666V597.333333h-298.666666zM170.666667 682.666667h640v-640H170.666667V682.666667z"  horiz-adv-x="1024" />

    
    <glyph glyph-name="operation" unicode="&#59849;" d="M513.066667 596.266667a234.666667 234.666667 0 1 0-197.973334-77.909334c2.176 2.816 3.84 4.821333 5.12 6.016l13.226667 13.226667 159.36-142.336-51.84-51.797333-87.594667 78.037333A149.333333 149.333333 0 1 1 554.666667 497.621333V469.333333h-85.333334V597.333333h42.666667l1.066667-1.066666z m261.888-458.794667l-60.842667 60.885333a277.333333 277.333333 0 1 1-74.666667-69.76l61.44-61.482666a362.666667 362.666667 0 1 0 74.069334 70.4z m-27.861334-31.232z"  horiz-adv-x="1024" />

    
    <glyph glyph-name="package" unicode="&#59850;" d="M853.333333 640v-213.333333H128V682.666667h725.333333v-42.666667z m-85.333333-42.666667H213.333333v-85.333333h554.666667V597.333333zM170.666667 426.666667h640v-384H170.666667v384z m85.333333 0v-298.666667h469.333333v298.666667H256z m170.666667-42.666667h128v-85.333333h-128v85.333333z"  horiz-adv-x="1024" />

    
    <glyph glyph-name="organization" unicode="&#59851;" d="M810.666667 213.333333h42.666666v-128h-170.666666v128h42.666666v128h85.333334v-128zM256 213.333333h42.666667v-128H128v128h42.666667v128h85.333333v-128z m277.333333 341.333334v-128H810.666667v-85.333334h-277.333334v-128h-85.333333v128H170.666667v85.333334h277.333333V554.666667H384V682.666667h213.333333v-128h-64z m64-341.333334v-128H384v128h213.333333z"  horiz-adv-x="1024" />

    
    <glyph glyph-name="open-package" unicode="&#59852;" d="M248.96 554.666667L213.333333 519.04V170.666667h554.666667v298.666666h-256V554.666667h128-391.04zM128.298667 554.666667l241.066666 241.066666 60.330667-60.330666L248.96 554.666667H853.333333v-469.333334H128V554.666667h0.298667zM426.666667 426.666667h128v-85.333334h-128v85.333334z"  horiz-adv-x="1024" />

    
    <glyph glyph-name="paste" unicode="&#59853;" d="M405.333333 725.333333c19.456 25.898667 50.432 42.666667 85.333334 42.666667 34.901333 0 65.877333-16.768 85.333333-42.666667H768v-725.333333H213.333333V725.333333h192zM384 640H298.666667v-554.666667h384V640h-85.333334v-42.666667H384V640z"  horiz-adv-x="1024" />

    
    <glyph glyph-name="paly" unicode="&#59854;" d="M490.666667 0a362.666667 362.666667 0 1 0 0 725.333333 362.666667 362.666667 0 0 0 0-725.333333z m0 85.333333a277.333333 277.333333 0 1 1 0 554.666667 277.333333 277.333333 0 0 1 0-554.666667z m149.333333 277.333334L426.666667 213.333333V512l213.333333-149.333333z"  horiz-adv-x="1024" />

    
    <glyph glyph-name="pause" unicode="&#59855;" d="M490.666667 0a362.666667 362.666667 0 1 0 0 725.333333 362.666667 362.666667 0 0 0 0-725.333333z m0 85.333333a277.333333 277.333333 0 1 1 0 554.666667 277.333333 277.333333 0 0 1 0-554.666667zM426.666667 469.333333v-213.333333H341.333333v213.333333h85.333334z m213.333333 0v-213.333333h-85.333333v213.333333h85.333333z"  horiz-adv-x="1024" />

    
    <glyph glyph-name="phone-r" unicode="&#59856;" d="M780.629333 85.333333A777.386667 777.386667 0 0 0 256 609.962667L328.106667 640A699.562667 699.562667 0 0 1 810.666667 157.44L780.629333 85.333333zM559.914667 197.632A789.248 789.248 0 0 1 791.893333 85.333333L853.333333 232.746667a630.229333 630.229333 0 0 0-162.133333 68.437333 2792.618667 2792.618667 0 0 0-131.285333-103.552z m-191.573334 191.573333A789.248 789.248 0 0 0 256 621.226667L403.413333 682.666667c15.36-57.813333 38.613333-112.426667 68.650667-162.517334a2776.746667 2776.746667 0 0 1-103.722667-130.986666z"  horiz-adv-x="1024" />

    
    <glyph glyph-name="PDA" unicode="&#59858;" d="M341.333333 512h298.666667V640H341.333333v-128zM298.666667 0H256V725.333333h469.333333v-725.333333H298.666667zM213.333333 512V597.333333h42.666667v-85.333333H213.333333z m512 0V597.333333h42.666667v-85.333333h-42.666667z m-384-170.666667h42.666667v85.333334H341.333333v-85.333334z m128 0h42.666667v85.333334h-42.666667v-85.333334z m128 0h42.666667v85.333334h-42.666667v-85.333334z m-256-128h42.666667v85.333334H341.333333v-85.333334z m128 0h42.666667v85.333334h-42.666667v-85.333334z m128 0h42.666667v85.333334h-42.666667v-85.333334z m-256-128h42.666667v85.333334H341.333333v-85.333334z m128 0h42.666667v85.333334h-42.666667v-85.333334z m128 0h42.666667v85.333334h-42.666667v-85.333334z"  horiz-adv-x="1024" />

    
    <glyph glyph-name="pie-chart" unicode="&#59859;" d="M469.333333 681.984v-85.589333A234.666667 234.666667 0 1 1 724.394667 341.333333h85.589333A320 320 0 1 0 469.333333 681.984zM853.333333 384h-341.333333V725.333333a341.333333 341.333333 0 0 0 341.333333-341.333333z m-256 243.2V469.333333h157.866667c-12.373333 43.989333-106.666667 145.493333-157.866667 157.866667z"  horiz-adv-x="1024" />

    
    <glyph glyph-name="position" unicode="&#59860;" d="M490.24-45.44l-0.64-0.64-228.821333 228.864v-0.042667a322.901333 322.901333 0 0 0-1.109334 1.152l-5.376 5.376 0.170667 0.170667a320 320 0 1 0 471.978667-0.426667l0.170666-0.170666-4.565333-4.522667a323.84 323.84 0 0 0-1.493333-1.578667l-229.290667-229.248-1.024 1.066667z m0.426667 119.04l171.861333 171.861333v0.042667a234.666667 234.666667 0 1 1-343.68 0l-0.085333-0.042667 171.904-171.904z m0 182.4a149.333333 149.333333 0 1 0 0 298.666667 149.333333 149.333333 0 0 0 0-298.666667z m0 85.333333a64 64 0 1 1 0 128 64 64 0 0 1 0-128z"  horiz-adv-x="1024" />

    
    <glyph glyph-name="power" unicode="&#59861;" d="M362.666667 702.08v-93.312a277.333333 277.333333 0 1 1 256 0V702.08a362.666667 362.666667 0 1 0-256 0z m85.333333 23.253333h85.333333v-213.333333h-85.333333V725.333333z"  horiz-adv-x="1024" />

    
    <glyph glyph-name="prine" unicode="&#59862;" d="M213.333333 512V682.666667h554.666667v-170.666667h85.333333v-384h-85.333333v298.666667H213.333333v-298.666667H128V512h85.333333z m85.333334 0h384V597.333333H298.666667v-85.333333z m0-384h384v-85.333333H213.333333v128h85.333334v-42.666667z m-85.333334 128h554.666667v-85.333333H213.333333v85.333333z m469.333334-85.333333h85.333333v-128h-85.333333v128zM256 384h85.333333v-85.333333H256v85.333333z"  horiz-adv-x="1024" />

    
    <glyph glyph-name="quality" unicode="&#59863;" d="M595.2 341.333333h23.466667v-85.333333h-128A106.666667 106.666667 0 0 0 384 362.666667v42.666666a106.666667 106.666667 0 1 0 213.333333 0v-42.666666c0-7.296-0.725333-14.421333-2.133333-21.333334zM490.666667 725.333333c119.04-64 218.453333-119.466667 320-170.666666 0-227.541333-106.666667-455.125333-320-597.333334C277.333333 99.541333 170.666667 327.125333 170.666667 554.666667c93.226667 51.2 199.893333 106.666667 320 170.666666z m-57.6-123.221333l-35.626667-18.858667-34.56-18.304a11025.92 11025.92 0 0 1-107.861333-57.728 569.130667 569.130667 0 0 1 235.605333-442.752A569.002667 569.002667 0 0 1 726.186667 506.453333a5021.013333 5021.013333 0 0 0-75.434667 39.552c-27.904 14.890667-118.954667 64.256-160.213333 86.613334l-57.429334-30.464zM490.666667 426.666667a21.333333 21.333333 0 0 1-21.333334-21.333334v-42.666666a21.333333 21.333333 0 0 1 42.666667 0v42.666666a21.333333 21.333333 0 0 1-21.333333 21.333334z"  horiz-adv-x="1024" />

    
    <glyph glyph-name="question-mark-r" unicode="&#59864;" d="M469.333333 405.333333H384v42.666667a106.666667 106.666667 0 1 0 213.333333 0v-42.666667a106.666667 106.666667 0 0 0-64-97.792V298.666667h-85.333333v85.333333h42.666667a21.333333 21.333333 0 0 1 21.333333 21.333333v42.666667a21.333333 21.333333 0 0 1-42.666667 0v-42.666667z m21.333334-405.333333a362.666667 362.666667 0 1 0 0 725.333333 362.666667 362.666667 0 0 0 0-725.333333z m0 85.333333a277.333333 277.333333 0 1 1 0 554.666667 277.333333 277.333333 0 0 1 0-554.666667z m-42.666667 170.666667h85.333333v-85.333333h-85.333333v85.333333z"  horiz-adv-x="1024" />

    
    <glyph glyph-name="process" unicode="&#59865;" d="M738.730667 98.090667A361.386667 361.386667 0 0 0 490.666667 0a361.386667 361.386667 0 0 0-248.064 98.090667 106.88 106.88 0 0 1 52.821333 67.626666A276.48 276.48 0 0 1 490.666667 85.333333a276.48 276.48 0 0 1 195.242666 80.384c7.424-29.226667 26.88-53.632 52.821334-67.626666z m105.898666 185.173333a362.837333 362.837333 0 0 1-247.424 426.197333 106.325333 106.325333 0 0 0-30.293333-80.042666 277.461333 277.461333 0 0 0 192.64-334.933334 106.709333 106.709333 0 0 0 85.077333-11.221333z m-707.925333 0a362.837333 362.837333 0 0 0 247.424 426.197333 106.325333 106.325333 0 0 1 30.293333-80.042666 277.461333 277.461333 0 0 1-192.64-334.933334 106.709333 106.709333 0 0 1-85.077333-11.221333zM490.666667 640a64 64 0 1 0 0 128 64 64 0 0 0 0-128z m-298.666667-512a64 64 0 1 0 0 128 64 64 0 0 0 0-128z m597.333333 0a64 64 0 1 0 0 128 64 64 0 0 0 0-128z"  horiz-adv-x="1024" />

    
    <glyph glyph-name="ppt" unicode="&#59866;" d="M533.333333 160.768l83.2-83.2-60.330666-60.330667-66.602667 66.56-66.56-66.56L362.666667 77.568l85.333333 85.333333V213.333333H170.666667V640h277.333333V682.666667h85.333333v-42.666667H810.666667v-426.666667h-277.333334v-52.565333zM256 554.666667v-256h469.333333V554.666667H256z"  horiz-adv-x="1024" />

    
    <glyph glyph-name="question-mark" unicode="&#59867;" d="M512 128h42.666667v89.6a213.418667 213.418667 0 0 1 170.666666 209.066667V512A213.333333 213.333333 0 1 1 298.666667 512v-85.333333h85.333333V512a128 128 0 0 0 256 0v-85.333333a128 128 0 0 0-128-128h-42.666667v-170.666667h42.666667z m-42.666667-42.666667h85.333334v-85.333333h-85.333334v85.333333z"  horiz-adv-x="1024" />

    
    <glyph glyph-name="Raidobox-selectedRai" unicode="&#59868;" d="M490.666667 0a362.666667 362.666667 0 1 0 0 725.333333 362.666667 362.666667 0 0 0 0-725.333333z m0 85.333333a277.333333 277.333333 0 1 1 0 554.666667 277.333333 277.333333 0 0 1 0-554.666667z m0 170.666667a106.666667 106.666667 0 1 0 0 213.333333 106.666667 106.666667 0 0 0 0-213.333333z"  horiz-adv-x="1024" />

    
    <glyph glyph-name="red-packet" unicode="&#59869;" d="M533.333333 213.333333v42.666667H640v85.333333h-91.434667l110.336 110.336L598.528 512l-106.965333-106.965333L384.597333 512 324.266667 451.669333 434.602667 341.333333H341.333333v-85.333333h106.666667v-42.666667H341.333333v-85.333333h106.666667v-42.666667h85.333333v42.666667H640v85.333333h-106.666667zM256 362.666667V725.333333h469.333333v-725.333333H256v362.666667zM256 597.333333c64-28.458667 142.208-42.666667 234.666667-42.666666s170.666667 14.208 234.666666 42.666666V640c-64-28.458667-142.208-42.666667-234.666666-42.666667s-170.666667 14.208-234.666667 42.666667v-42.666667z"  horiz-adv-x="1024" />

    
    <glyph glyph-name="radar" unicode="&#59870;" d="M554.666667 632.576a277.333333 277.333333 0 1 0-280.533334-96.64l180.565334-180.565333 60.330666 60.330666L273.664 657.066667l-27.434667-27.477334-0.512 0.512c-10.752-9.813333-20.906667-20.309333-30.378666-31.36L213.333333 596.736l0.170667-0.170667a362.666667 362.666667 0 1 1 299.306667 128.085334L512.085333 725.333333H469.333333v-128h85.333334v35.242667z"  horiz-adv-x="1024" />

    
    <glyph glyph-name="refund" unicode="&#59871;" d="M810.666667 405.034667l81.365333-81.365334-60.330667-60.330666-21.034666 20.778666V42.666667H170.666667V682.666667h640v-277.632zM533.333333 298.666667h85.333334v-85.333334h-85.333334v-42.666666h-85.333333v42.666666h-85.333333v85.333334h85.333333v42.666666h-85.333333v85.333334h67.669333L362.666667 494.336 422.997333 554.666667l67.498667-67.498667L557.994667 554.666667l60.373333-60.330667L550.698667 426.666667H618.666667v-85.333334h-85.333334v-42.666666zM256 597.333333v-469.333333h469.333333V597.333333H256z m469.333333-42.666666v-64l85.333334-85.333334V469.333333l-85.333334 85.333334z"  horiz-adv-x="1024" />

    
    <glyph glyph-name="register" unicode="&#59872;" d="M725.333333 384v85.333333h85.333334v-85.333333h85.333333v-85.333333h-85.333333v-85.333334h-85.333334v85.333334h-85.333333v85.333333h85.333333z m-128-284.330667L526.336 170.666667h-242.346667L213.333333 99.968V85.333333h384v14.336z m84.949334 35.584H682.666667V0H128v135.253333h0.085333L128 135.338667 248.661333 256l0.085334-0.085333V256h313.173333v-0.256l120.448-120.405333-0.085333-0.085334zM405.333333 682.666667A149.333333 149.333333 0 0 0 554.666667 533.333333v-85.333333a149.333333 149.333333 0 1 0-298.666667 0v85.333333A149.333333 149.333333 0 0 0 405.333333 682.666667z m0-85.333334A64 64 0 0 1 341.333333 533.333333v-85.333333a64 64 0 0 1 128 0v85.333333A64 64 0 0 1 405.333333 597.333333z"  horiz-adv-x="1024" />

    
    <glyph glyph-name="Raidobox" unicode="&#59873;" d="M490.666667 0a362.666667 362.666667 0 1 0 0 725.333333 362.666667 362.666667 0 0 0 0-725.333333z m0 85.333333a277.333333 277.333333 0 1 1 0 554.666667 277.333333 277.333333 0 0 1 0-554.666667z"  horiz-adv-x="1024" />

    
    <glyph glyph-name="resource" unicode="&#59874;" d="M730.88 416l110.805333-64-110.848-64 110.848-64L490.666667 21.333333l-351.018667 202.666667 110.848 64-110.848 64 110.848 64-110.848 64L490.666667 682.666667l351.018666-202.666667-110.848-64z m-400.810667-45.952l-19.754666-11.392 180.266666-104.106667 180.266667 104.106667-19.669333 11.349333L490.666667 277.333333l-160.597334 92.714667z m321.109334-128.042667L490.666667 149.333333l-160.597334 92.714667-19.754666-11.392 180.266666-104.106667 180.266667 104.106667-19.669333 11.349333z m-160.597334 348.714667L310.314667 486.656l180.266666-104.106667 180.266667 104.106667-180.266667 104.106667z"  horiz-adv-x="1024" />

    
    <glyph glyph-name="refresh" unicode="&#59875;" d="M863.872 503.210667l50.858667 50.858666L914.133333 554.666667h-115.754666a362.666667 362.666667 0 1 1 51.541333-142.208l-84.010667-84.053334a277.376 277.376 0 1 0-1.152 76.885334l98.133334 98.176 0.981333-0.256z"  horiz-adv-x="1024" />

    
    <glyph glyph-name="reverse-sorting" unicode="&#59876;" d="M490.666667 465.664L316.330667 640 256 579.669333l234.026667-234.026666 0.64 0.597333 0.597333-0.597333L725.333333 579.669333 664.96 640 490.666667 465.664z m0-256L316.330667 384 256 323.669333l234.026667-234.026666 0.64 0.597333 0.597333-0.597333L725.333333 323.669333 664.96 384 490.666667 209.664z"  horiz-adv-x="1024" />

    
    <glyph glyph-name="relationship" unicode="&#59877;" d="M341.333333 298.666667H256v-213.333334h85.333333v213.333334z m85.333334 24.96v-79.786667l63.914666-63.957333L554.666667 243.968V384h256v-384h-256V123.306667l-63.402667-63.402667-0.682667 0.682667-0.682666-0.682667L426.666667 123.136V0H170.666667v384h256v-60.373333zM725.333333 298.666667h-85.333333v-213.333334h85.333333v213.333334z m85.333334 256a128 128 0 1 0-256 0 128 128 0 0 0 256 0z m-85.333334 0a42.666667 42.666667 0 1 1-85.333333 0 42.666667 42.666667 0 0 1 85.333333 0z m-298.666666 0a128 128 0 1 0-256 0 128 128 0 0 0 256 0zM341.333333 554.666667a42.666667 42.666667 0 1 1-85.333333 0 42.666667 42.666667 0 0 1 85.333333 0z"  horiz-adv-x="1024" />

    
    <glyph glyph-name="right-exchange" unicode="&#59878;" d="M810.666667 297.813333l-136.234667-136.192L622.933333 212.906667l84.821334 84.906666H128v85.333334h768l-85.333333-85.333334z"  horiz-adv-x="1024" />

    
    <glyph glyph-name="rise" unicode="&#59879;" d="M858.624 186.709333L874.666667 170.666667h-768l85.333333 85.333333h0.341333l298.24 298.24 0.426667 0.426667 64.512-64.426667-0.042667-0.042667 303.445334-303.445333-0.298667-0.042667zM663.466667 256l-174.08 168.149333L320.981333 256h342.442667z"  horiz-adv-x="1024" />

    
    <glyph glyph-name="right" unicode="&#59880;" d="M727.04 426.666667l-131.669333 131.669333L655.701333 618.666667l234.069334-234.026667-0.64-0.64 0.64-0.597333-234.069334-234.026667-60.330666 60.330667L727.04 341.333333H85.333333v85.333334h641.706667z"  horiz-adv-x="1024" />

    
    <glyph glyph-name="right-sorting" unicode="&#59881;" d="M387.669333 362.666667L213.333333 188.373333 273.664 128l234.026667 234.026667-0.597334 0.597333 0.597334 0.64L273.664 597.333333 213.333333 537.002667 387.669333 362.666667z m256 0L469.333333 188.373333 529.664 128l234.026667 234.026667-0.597334 0.597333 0.597334 0.64L529.664 597.333333 469.333333 537.002667l174.336-174.336z"  horiz-adv-x="1024" />

    
    <glyph glyph-name="RMB" unicode="&#59882;" d="M448 213.333333v85.333334H213.333333v85.333333h234.666667v54.869333l-228.693333 228.693334 60.330666 60.373333 211.328-211.370667 211.328 211.370667 60.373334-60.373333-229.333334-229.290667V384H768v-85.333333h-234.666667v-85.333334H768v-85.333333h-234.666667v-85.333333h-85.333333v85.333333H213.333333v85.333333h234.666667z"  horiz-adv-x="1024" />

    
    <glyph glyph-name="satisfy" unicode="&#59883;" d="M640 373.333333v-53.333333a149.333333 149.333333 0 1 0-298.666667 0v53.333333-32h298.666667v32zM490.666667 0a362.666667 362.666667 0 1 0 0 725.333333 362.666667 362.666667 0 0 0 0-725.333333z m0 85.333333a277.333333 277.333333 0 1 1 0 554.666667 277.333333 277.333333 0 0 1 0-554.666667zM426.666667 512v-85.333333H341.333333V512h85.333334z m213.333333 0v-85.333333h-85.333333V512h85.333333z"  horiz-adv-x="1024" />

    
    <glyph glyph-name="safe" unicode="&#59884;" d="M533.333333 222.933333V298.666667H810.666667v-10.666667 117.333333a320.042667 320.042667 0 0 1-277.333334 317.184V768h-85.333333v-45.482667A320.042667 320.042667 0 0 1 170.666667 405.333333v-117.333333V298.666667h277.333333v-234.666667a106.666667 106.666667 0 1 1 213.333333 0v42.666667h-85.333333v-42.666667a21.333333 21.333333 0 0 0-42.666667 0v158.933333zM725.333333 384H256v21.333333a234.666667 234.666667 0 0 0 469.333333 0v-21.333333z"  horiz-adv-x="1024" />

    
    <glyph glyph-name="rule" unicode="&#59885;" d="M640 213.333333H170.666667v-85.333333h469.333333v-42.666667h170.666667v42.666667h42.666666v85.333333h-42.666666v42.666667h-170.666667v-42.666667z m-213.333333 213.333334H170.666667v-85.333334h256v-42.666666h170.666666v42.666666h256v85.333334h-256v42.666666h-170.666666v-42.666666zM213.333333 640H170.666667v-85.333333h42.666666v-42.666667h170.666667V554.666667h469.333333V640H384V682.666667H213.333333v-42.666667z"  horiz-adv-x="1024" />

    
    <glyph glyph-name="save" unicode="&#59886;" d="M384 170.666667v-42.666667h213.333333v42.666667H384z m-21.333333 85.333333H682.666667v-128h42.666666V476.629333L604.629333 597.333333H256v-469.333333h42.666667v128h64z m280.362666 426.666667L810.666667 515.029333V42.666667H170.666667V682.666667h472.362666zM298.666667 554.666667h85.333333v-213.333334H298.666667V554.666667z"  horiz-adv-x="1024" />

    
    <glyph glyph-name="scan" unicode="&#59887;" d="M256 469.333333H170.666667v-213.333333h85.333333v-128h128v-85.333333h213.333333v85.333333h128v128h85.333334v213.333333h-85.333334V597.333333h-128V682.666667H384v-85.333334H256v-128zM170.666667 682.666667h640v-640H170.666667V682.666667z m640-277.333334v-85.333333H170.666667v85.333333h640z"  horiz-adv-x="1024" />

    
    <glyph glyph-name="schedule" unicode="&#59888;" d="M341.333333 725.333333v-85.333333H256V725.333333h85.333333z m384 0v-85.333333h-85.333333V725.333333h85.333333z m128-85.333333v-554.666667H128V640h725.333333zM213.333333 554.666667v-384h554.666667V554.666667H213.333333z m170.666667-42.666667v-85.333333H256V512h128z"  horiz-adv-x="1024" />

    
    <glyph glyph-name="screwdriver" unicode="&#59889;" d="M280.106667 85.077333l-54.186667-99.072-105.6 105.557334 100.693333 55.04L330.368 256l60.330667-60.330667-110.592-110.592zM653.397333 725.333333l211.2-211.2-387.072-386.986666-211.2 211.157333L653.44 725.333333z m0-120.661333L386.986667 338.304l30.165333-30.165333 266.368 266.325333-30.165333 30.208z m60.330667-60.373333l-266.368-266.325334 30.165333-30.165333 266.368 266.325333-30.165333 30.165334z"  horiz-adv-x="1024" />

    
    <glyph glyph-name="search" unicode="&#59890;" d="M448 85.333333a320 320 0 1 0 0 640 320 320 0 0 0 0-640z m0 85.333334a234.666667 234.666667 0 1 1 0 469.333333 234.666667 234.666667 0 0 1 0-469.333333z m273.664 0l120.704-120.661334-60.373333-60.373333-120.661334 120.704L721.664 170.666667z"  horiz-adv-x="1024" />

    
    <glyph glyph-name="service" unicode="&#59891;" d="M640 117.418667V0h-85.333333V178.090667A277.504 277.504 0 0 1 767.189333 426.666667h85.546667A362.837333 362.837333 0 0 0 640 117.418667z m-298.666667 0A362.837333 362.837333 0 0 0 128.597333 426.666667H214.186667A277.504 277.504 0 0 1 426.666667 178.090667V0H341.333333v117.418667zM594.176 682.666667C669.056 682.666667 725.333333 629.205333 725.333333 551.509333c0-67.413333-54.186667-133.802667-97.28-175.914666-28.501333-27.861333-74.282667-57.856-137.386666-90.026667-63.104 32.170667-108.885333 62.208-137.386667 90.026667C310.186667 417.706667 256 484.096 256 551.509333 256 629.205333 312.32 682.666667 387.157333 682.666667c40.533333 0 75.093333-16.896 103.509334-50.645334C519.125333 665.770667 553.6 682.666667 594.176 682.666667z"  horiz-adv-x="1024" />

    
    <glyph glyph-name="security" unicode="&#59892;" d="M480.426667 377.770667L572.032 469.333333l60.330667-60.330666-146.218667-146.218667v0.042667l-5.76-5.717334-109.184 109.226667L431.530667 426.666667l48.896-48.896zM490.666667 725.333333c119.04-64 218.453333-119.466667 320-170.666666 0-227.541333-106.666667-455.125333-320-597.333334C277.333333 99.541333 170.666667 327.125333 170.666667 554.666667c93.226667 51.2 199.893333 106.666667 320 170.666666z m-57.6-123.221333l-35.626667-18.858667-34.56-18.304a11025.92 11025.92 0 0 1-107.861333-57.728 569.130667 569.130667 0 0 1 235.605333-442.752A569.002667 569.002667 0 0 1 726.186667 506.453333a5021.013333 5021.013333 0 0 0-75.434667 39.552c-27.904 14.890667-118.954667 64.256-160.213333 86.613334l-57.429334-30.464z"  horiz-adv-x="1024" />

    
    <glyph glyph-name="settlement" unicode="&#59893;" d="M170.666667 682.666667h640v-640H170.666667V682.666667z m85.333333-85.333334v-469.333333h469.333333V597.333333H256z m384-128v-85.333333H341.333333v85.333333h298.666667z m0-128v-85.333333H341.333333v85.333333h298.666667z"  horiz-adv-x="1024" />

    
    <glyph glyph-name="setup" unicode="&#59894;" d="M737.706667 600.405333l33.024 33.024a256 256 0 0 0-261.802667-412.586666l-205.226667-205.226667-30.165333-30.208-150.826667 150.869333-30.208 30.165334 235.434667 235.392a256 256 0 0 0 412.586667 261.76l-33.024-33.024-87.04-87.04-60.288 60.373333 33.834666 33.877333a170.666667 170.666667 0 1 1 150.869334-150.869333l-33.877334-33.877333-60.330666 60.373333 87.04 87.04zM213.205333 166.442667l60.330667-60.330667 153.344 153.344a257.706667 257.706667 0 0 0-60.330667 60.330667l-153.344-153.344z m497.792 286.592l-60.330666-60.330667-150.869334 150.869333 60.373334 60.330667 150.826666-150.869333z"  horiz-adv-x="1024" />

    
    <glyph glyph-name="share" unicode="&#59895;" d="M689.28 505.258667l-149.077333-149.077334-60.330667 60.330667 149.077333 149.077333L554.581333 640h-0.085333l-42.666667 42.666667h298.538667v-2.048H810.666667l-0.256-296.533334-42.666667 42.666667v0.085333l-78.464 78.421334zM691.328 640h76.373333v-152.832l0.085334-0.042667L768 640h-76.629333zM255.957333 597.333333v-469.333333h469.12v256l85.333334-85.333333v-170.666667h0.128v-85.333333h-640v85.333333H170.666667V597.333333h-0.085334V682.666667h256l85.333334-85.333334H256z"  horiz-adv-x="1024" />

    
    <glyph glyph-name="setting" unicode="&#59761;" d="M173.354667 320.853333a322.986667 322.986667 0 0 0 0 83.626667L123.306667 451.626667l106.666666 184.746666 65.877334-19.84a319.658667 319.658667 0 0 0 72.448 41.898667L384 725.333333h213.333333l15.744-66.901333c26.026667-10.794667 50.346667-24.96 72.448-41.898667l65.877334 19.84 106.666666-184.746666-50.090666-47.146667a322.986667 322.986667 0 0 0 0-83.626667l50.090666-47.146666-106.666666-184.746667-65.877334 19.84a319.658667 319.658667 0 0 0-72.448-41.898667L597.333333 0H384l-15.744 66.901333a319.658667 319.658667 0 0 0-72.448 41.898667l-65.877333-19.84-106.666667 184.746667 50.090667 47.146666z m96.682666-130.688l43.093334 12.970667 34.688-26.666667c16.298667-12.544 34.133333-22.869333 53.12-30.72l40.362666-16.725333 10.282667-43.690667h78.165333l10.24 43.690667 40.405334 16.725333a234.325333 234.325333 0 0 1 53.12 30.72l34.688 26.666667 43.093333-12.970667 39.082667 67.669334-32.682667 30.72 5.632 43.349333a237.653333 237.653333 0 0 1 0 61.525333l-5.632 43.306667 32.682667 30.72-39.082667 67.712-43.093333-12.970667-34.688 26.666667a234.325333 234.325333 0 0 1-53.12 30.72l-40.362667 16.725333L529.749333 640h-78.165333l-10.24-43.690667-40.405333-16.725333a234.325333 234.325333 0 0 1-53.12-30.72l-34.688-26.666667-43.093334 12.970667-39.082666-67.669333 32.682666-30.72-5.632-43.349334a237.653333 237.653333 0 0 1 0-61.525333l5.632-43.306667-32.682666-30.72 39.082666-67.712zM490.666667 298.666667a64 64 0 1 1 0 128 64 64 0 0 1 0-128z m0-85.333334a149.333333 149.333333 0 1 0 0 298.666667 149.333333 149.333333 0 0 0 0-298.666667z"  horiz-adv-x="1024" />

    
    </font>
</defs>
</svg>
